# Blender 4.3.0
# www.blender.org
mtllib logo.mtl
o Text
v 3.803000 0.341000 0.000000
v 3.801192 0.392001 0.000000
v 3.795871 0.439843 0.000000
v 3.787188 0.484281 0.000000
v 3.775296 0.525074 0.000000
v 3.760350 0.561978 0.000000
v 3.742500 0.594750 0.000000
v 3.721901 0.623147 0.000000
v 3.698704 0.646926 0.000000
v 3.673063 0.665844 0.000000
v 3.645130 0.679658 0.000000
v 3.615058 0.688124 0.000000
v 3.583000 0.691000 0.000000
v 3.550942 0.688124 0.000000
v 3.520871 0.679657 0.000000
v 3.492938 0.665844 0.000000
v 3.467297 0.646926 0.000000
v 3.444100 0.623147 0.000000
v 3.423500 0.594750 0.000000
v 3.405651 0.561978 0.000000
v 3.390704 0.525074 0.000000
v 3.378813 0.484281 0.000000
v 3.370130 0.439843 0.000000
v 3.364808 0.392001 0.000000
v 3.363000 0.341000 0.000000
v 3.364808 0.289999 0.000000
v 3.370130 0.242157 0.000000
v 3.378813 0.197719 0.000000
v 3.390704 0.156926 0.000000
v 3.405651 0.120022 0.000000
v 3.423500 0.087250 0.000000
v 3.444100 0.058853 0.000000
v 3.467296 0.035074 0.000000
v 3.492938 0.016156 0.000000
v 3.520870 0.002343 0.000000
v 3.550942 -0.006124 -0.000000
v 3.583000 -0.009000 -0.000000
v 3.615058 -0.006124 -0.000000
v 3.645130 0.002343 0.000000
v 3.673063 0.016156 0.000000
v 3.698704 0.035074 0.000000
v 3.721900 0.058853 0.000000
v 3.742500 0.087250 0.000000
v 3.760350 0.120022 0.000000
v 3.775296 0.156926 0.000000
v 3.787187 0.197719 0.000000
v 3.795870 0.242157 0.000000
v 3.801192 0.289999 0.000000
v 3.705000 0.341000 0.000000
v 3.704051 0.302332 0.000000
v 3.701241 0.266407 0.000000
v 3.696625 0.233344 0.000000
v 3.690259 0.203259 0.000000
v 3.682199 0.176272 0.000000
v 3.672500 0.152500 0.000000
v 3.661217 0.132061 0.000000
v 3.648407 0.115074 0.000000
v 3.634125 0.101656 0.000000
v 3.618426 0.091926 0.000000
v 3.601365 0.086001 0.000000
v 3.583000 0.084000 0.000000
v 3.564635 0.086001 0.000000
v 3.547574 0.091926 0.000000
v 3.531875 0.101656 0.000000
v 3.517593 0.115074 0.000000
v 3.504782 0.132061 0.000000
v 3.493500 0.152500 0.000000
v 3.483801 0.176272 0.000000
v 3.475741 0.203259 0.000000
v 3.469375 0.233344 0.000000
v 3.464759 0.266407 0.000000
v 3.461949 0.302332 0.000000
v 3.461000 0.341000 0.000000
v 3.461949 0.379668 0.000000
v 3.464760 0.415593 0.000000
v 3.469375 0.448656 0.000000
v 3.475741 0.478741 0.000000
v 3.483801 0.505728 0.000000
v 3.493500 0.529500 0.000000
v 3.504783 0.549939 0.000000
v 3.517593 0.566926 0.000000
v 3.531876 0.580344 0.000000
v 3.547575 0.590074 0.000000
v 3.564635 0.595999 0.000000
v 3.583000 0.598000 0.000000
v 3.601366 0.595999 0.000000
v 3.618426 0.590074 0.000000
v 3.634125 0.580344 0.000000
v 3.648408 0.566926 0.000000
v 3.661218 0.549939 0.000000
v 3.672500 0.529500 0.000000
v 3.682199 0.505728 0.000000
v 3.690260 0.478741 0.000000
v 3.696625 0.448656 0.000000
v 3.701241 0.415593 0.000000
v 3.704051 0.379668 0.000000
v 0.653000 0.682000 0.000000
v 0.555000 0.682000 0.000000
v 0.555000 0.385000 0.000000
v 0.173000 0.385000 0.000000
v 0.173000 0.682000 0.000000
v 0.075000 0.682000 0.000000
v 0.075000 0.000000 0.000000
v 0.173000 0.000000 0.000000
v 0.173000 0.297000 0.000000
v 0.555000 0.297000 0.000000
v 0.555000 0.000000 0.000000
v 0.653000 0.000000 0.000000
v 1.191000 0.682000 0.000000
v 0.804000 0.682000 0.000000
v 0.804000 0.000000 0.000000
v 1.200000 0.000000 0.000000
v 1.200000 0.088000 0.000000
v 0.902000 0.088000 0.000000
v 0.902000 0.300000 0.000000
v 1.181000 0.300000 0.000000
v 1.181000 0.388000 0.000000
v 0.902000 0.388000 0.000000
v 0.902000 0.594000 0.000000
v 1.191000 0.594000 0.000000
v 1.306000 0.682000 0.000000
v 1.306000 0.000000 0.000000
v 1.404000 0.000000 0.000000
v 1.404000 0.296000 0.000000
v 1.445000 0.296000 0.000000
v 1.457346 0.295604 0.000000
v 1.469519 0.294167 0.000000
v 1.481719 0.291313 0.000000
v 1.494148 0.286667 0.000000
v 1.507008 0.279854 0.000000
v 1.520500 0.270500 0.000000
v 1.534825 0.258229 0.000000
v 1.550185 0.242667 0.000000
v 1.566781 0.223437 0.000000
v 1.584815 0.200167 0.000000
v 1.604487 0.172479 0.000000
v 1.626000 0.140000 0.000000
v 1.716000 0.000000 0.000000
v 1.833000 0.000000 0.000000
v 1.821847 0.015411 0.000000
v 1.811793 0.029298 0.000000
v 1.802694 0.041891 0.000000
v 1.794405 0.053420 0.000000
v 1.786782 0.064116 0.000000
v 1.779683 0.074209 0.000000
v 1.772962 0.083929 0.000000
v 1.766476 0.093507 0.000000
v 1.760081 0.103172 0.000000
v 1.753632 0.113156 0.000000
v 1.746987 0.123689 0.000000
v 1.740000 0.135000 0.000000
v 1.727270 0.155792 0.000000
v 1.714991 0.175667 0.000000
v 1.703031 0.194625 0.000000
v 1.691259 0.212667 0.000000
v 1.679543 0.229792 0.000000
v 1.667750 0.246000 0.000000
v 1.655749 0.261292 0.000000
v 1.643407 0.275667 0.000000
v 1.630594 0.289125 0.000000
v 1.617176 0.301667 0.000000
v 1.603022 0.313292 0.000000
v 1.588000 0.324000 0.000000
v 1.605578 0.331869 0.000000
v 1.621792 0.340954 0.000000
v 1.636609 0.351219 0.000000
v 1.650000 0.362630 0.000000
v 1.661932 0.375152 0.000000
v 1.672375 0.388750 0.000000
v 1.681297 0.403390 0.000000
v 1.688667 0.419037 0.000000
v 1.694453 0.435656 0.000000
v 1.698625 0.453213 0.000000
v 1.701151 0.471673 0.000000
v 1.702000 0.491000 0.000000
v 1.700228 0.519546 0.000000
v 1.694991 0.546120 0.000000
v 1.686406 0.570625 0.000000
v 1.674593 0.592963 0.000000
v 1.659668 0.613037 0.000000
v 1.641750 0.630750 0.000000
v 1.620957 0.646005 0.000000
v 1.597407 0.658704 0.000000
v 1.571219 0.668750 0.000000
v 1.542509 0.676046 0.000000
v 1.511397 0.680495 0.000000
v 1.478000 0.682000 0.000000
v 1.404000 0.598000 0.000000
v 1.467000 0.598000 0.000000
v 1.489572 0.597196 0.000000
v 1.509834 0.594815 0.000000
v 1.527858 0.590906 0.000000
v 1.543713 0.585518 0.000000
v 1.557472 0.578700 0.000000
v 1.569204 0.570499 0.000000
v 1.578980 0.560966 0.000000
v 1.586871 0.550147 0.000000
v 1.592948 0.538093 0.000000
v 1.597281 0.524851 0.000000
v 1.599942 0.510471 0.000000
v 1.601000 0.495000 0.000000
v 1.600579 0.480842 0.000000
v 1.598713 0.466986 0.000000
v 1.595250 0.453609 0.000000
v 1.590037 0.440889 0.000000
v 1.582922 0.429002 0.000000
v 1.573750 0.418125 0.000000
v 1.562371 0.408436 0.000000
v 1.548630 0.400111 0.000000
v 1.532375 0.393328 0.000000
v 1.513454 0.388264 0.000000
v 1.491713 0.385095 0.000000
v 1.467000 0.384000 0.000000
v 1.404000 0.384000 0.000000
v 2.303000 0.341000 0.000000
v 2.301192 0.392001 0.000000
v 2.295871 0.439843 0.000000
v 2.287188 0.484281 0.000000
v 2.275296 0.525074 0.000000
v 2.260350 0.561978 0.000000
v 2.242500 0.594750 0.000000
v 2.221901 0.623147 0.000000
v 2.198704 0.646926 0.000000
v 2.173063 0.665844 0.000000
v 2.145130 0.679658 0.000000
v 2.115058 0.688124 0.000000
v 2.083000 0.691000 0.000000
v 2.050942 0.688124 0.000000
v 2.020871 0.679657 0.000000
v 1.992938 0.665844 0.000000
v 1.967297 0.646926 0.000000
v 1.944100 0.623147 0.000000
v 1.923500 0.594750 0.000000
v 1.905651 0.561978 0.000000
v 1.890704 0.525074 0.000000
v 1.878813 0.484281 0.000000
v 1.870130 0.439843 0.000000
v 1.864808 0.392001 0.000000
v 1.863000 0.341000 0.000000
v 1.864808 0.289999 0.000000
v 1.870130 0.242157 0.000000
v 1.878813 0.197719 0.000000
v 1.890704 0.156926 0.000000
v 1.905651 0.120022 0.000000
v 1.923500 0.087250 0.000000
v 1.944100 0.058853 0.000000
v 1.967297 0.035074 0.000000
v 1.992938 0.016156 0.000000
v 2.020871 0.002343 0.000000
v 2.050942 -0.006124 -0.000000
v 2.083000 -0.009000 -0.000000
v 2.115058 -0.006124 -0.000000
v 2.145130 0.002343 0.000000
v 2.173063 0.016156 0.000000
v 2.198704 0.035074 0.000000
v 2.221900 0.058853 0.000000
v 2.242500 0.087250 0.000000
v 2.260350 0.120022 0.000000
v 2.275296 0.156926 0.000000
v 2.287187 0.197719 0.000000
v 2.295870 0.242157 0.000000
v 2.301192 0.289999 0.000000
v 2.205000 0.341000 0.000000
v 2.204051 0.302332 0.000000
v 2.201241 0.266407 0.000000
v 2.196625 0.233344 0.000000
v 2.190259 0.203259 0.000000
v 2.182199 0.176272 0.000000
v 2.172500 0.152500 0.000000
v 2.161217 0.132061 0.000000
v 2.148407 0.115074 0.000000
v 2.134125 0.101656 0.000000
v 2.118426 0.091926 0.000000
v 2.101365 0.086001 0.000000
v 2.083000 0.084000 0.000000
v 2.064635 0.086001 0.000000
v 2.047574 0.091926 0.000000
v 2.031875 0.101656 0.000000
v 2.017593 0.115074 0.000000
v 2.004782 0.132061 0.000000
v 1.993500 0.152500 0.000000
v 1.983801 0.176272 0.000000
v 1.975741 0.203259 0.000000
v 1.969375 0.233344 0.000000
v 1.964759 0.266407 0.000000
v 1.961949 0.302332 0.000000
v 1.961000 0.341000 0.000000
v 1.961949 0.379668 0.000000
v 1.964759 0.415593 0.000000
v 1.969375 0.448656 0.000000
v 1.975741 0.478741 0.000000
v 1.983801 0.505728 0.000000
v 1.993500 0.529500 0.000000
v 2.004783 0.549939 0.000000
v 2.017593 0.566926 0.000000
v 2.031875 0.580344 0.000000
v 2.047575 0.590074 0.000000
v 2.064635 0.595999 0.000000
v 2.083000 0.598000 0.000000
v 2.101366 0.595999 0.000000
v 2.118426 0.590074 0.000000
v 2.134125 0.580344 0.000000
v 2.148408 0.566926 0.000000
v 2.161218 0.549939 0.000000
v 2.172500 0.529500 0.000000
v 2.182199 0.505728 0.000000
v 2.190260 0.478741 0.000000
v 2.196625 0.448656 0.000000
v 2.201241 0.415593 0.000000
v 2.204051 0.379668 0.000000
v 2.799000 0.093000 0.000000
v 2.538000 0.093000 0.000000
v 2.574102 0.136478 0.000000
v 2.606482 0.176657 0.000000
v 2.635250 0.213906 0.000000
v 2.660519 0.248593 0.000000
v 2.682398 0.281085 0.000000
v 2.701000 0.311750 0.000000
v 2.716435 0.340957 0.000000
v 2.728815 0.369074 0.000000
v 2.738250 0.396469 0.000000
v 2.744852 0.423509 0.000000
v 2.748732 0.450564 0.000000
v 2.750000 0.478000 0.000000
v 2.748257 0.508660 0.000000
v 2.743134 0.537528 0.000000
v 2.734797 0.564438 0.000000
v 2.723408 0.589222 0.000000
v 2.709129 0.611715 0.000000
v 2.692125 0.631750 0.000000
v 2.672559 0.649160 0.000000
v 2.650593 0.663778 0.000000
v 2.626391 0.675438 0.000000
v 2.600116 0.683972 0.000000
v 2.571931 0.689215 0.000000
v 2.542000 0.691000 0.000000
v 2.528329 0.690561 0.000000
v 2.514796 0.689241 0.000000
v 2.501375 0.687031 0.000000
v 2.488037 0.683926 0.000000
v 2.474755 0.679918 0.000000
v 2.461500 0.675000 0.000000
v 2.448245 0.669166 0.000000
v 2.434963 0.662407 0.000000
v 2.421625 0.654719 0.000000
v 2.408204 0.646093 0.000000
v 2.394671 0.636522 0.000000
v 2.381000 0.626000 0.000000
v 2.381000 0.503000 0.000000
v 2.394648 0.519515 0.000000
v 2.408102 0.534120 0.000000
v 2.421375 0.546906 0.000000
v 2.434482 0.557963 0.000000
v 2.447436 0.567381 0.000000
v 2.460250 0.575250 0.000000
v 2.472940 0.581661 0.000000
v 2.485519 0.586704 0.000000
v 2.498000 0.590469 0.000000
v 2.510399 0.593046 0.000000
v 2.522727 0.594527 0.000000
v 2.535000 0.595000 0.000000
v 2.551377 0.593914 0.000000
v 2.566931 0.590727 0.000000
v 2.581547 0.585547 0.000000
v 2.595111 0.578481 0.000000
v 2.607509 0.569638 0.000000
v 2.618625 0.559125 0.000000
v 2.628346 0.547049 0.000000
v 2.636556 0.533518 0.000000
v 2.643141 0.518641 0.000000
v 2.647986 0.502523 0.000000
v 2.650978 0.485274 0.000000
v 2.652000 0.467000 0.000000
v 2.651670 0.453202 0.000000
v 2.650678 0.440206 0.000000
v 2.649024 0.427861 0.000000
v 2.646704 0.416016 0.000000
v 2.643717 0.404517 0.000000
v 2.640062 0.393214 0.000000
v 2.635737 0.381954 0.000000
v 2.630741 0.370587 0.000000
v 2.625070 0.358959 0.000000
v 2.618725 0.346920 0.000000
v 2.611702 0.334318 0.000000
v 2.604000 0.321000 0.000000
v 2.588585 0.295763 0.000000
v 2.571514 0.269685 0.000000
v 2.553047 0.242969 0.000000
v 2.533444 0.215815 0.000000
v 2.512967 0.188425 0.000000
v 2.491875 0.161000 0.000000
v 2.470429 0.133742 0.000000
v 2.448889 0.106852 0.000000
v 2.427516 0.080531 0.000000
v 2.406569 0.054981 0.000000
v 2.386311 0.030404 0.000000
v 2.367000 0.007000 0.000000
v 2.367000 0.000000 0.000000
v 2.799000 0.000000 0.000000
v 3.133000 0.682000 0.000000
v 3.035000 0.682000 0.000000
v 3.035000 0.000000 0.000000
v 3.133000 0.000000 0.000000
v 3.803000 0.341000 0.445694
v 3.801192 0.392001 0.445694
v 3.795871 0.439843 0.445694
v 3.787188 0.484281 0.445694
v 3.775296 0.525074 0.445694
v 3.760350 0.561978 0.445694
v 3.742500 0.594750 0.445694
v 3.721901 0.623147 0.445694
v 3.698704 0.646926 0.445694
v 3.673063 0.665844 0.445694
v 3.645130 0.679658 0.445694
v 3.615058 0.688124 0.445694
v 3.583000 0.691000 0.445694
v 3.550942 0.688124 0.445694
v 3.520871 0.679657 0.445694
v 3.492938 0.665844 0.445694
v 3.467297 0.646926 0.445694
v 3.444100 0.623147 0.445694
v 3.423500 0.594750 0.445694
v 3.405651 0.561978 0.445694
v 3.390704 0.525074 0.445694
v 3.378813 0.484281 0.445694
v 3.370130 0.439843 0.445694
v 3.364808 0.392001 0.445694
v 3.363000 0.341000 0.445694
v 3.364808 0.289999 0.445694
v 3.370130 0.242157 0.445694
v 3.378813 0.197719 0.445694
v 3.390704 0.156926 0.445694
v 3.405651 0.120022 0.445694
v 3.423500 0.087250 0.445694
v 3.444100 0.058853 0.445694
v 3.467296 0.035074 0.445694
v 3.492938 0.016156 0.445694
v 3.520870 0.002343 0.445694
v 3.550942 -0.006124 0.445694
v 3.583000 -0.009000 0.445694
v 3.615058 -0.006124 0.445694
v 3.645130 0.002343 0.445694
v 3.673063 0.016156 0.445694
v 3.698704 0.035074 0.445694
v 3.721900 0.058853 0.445694
v 3.742500 0.087250 0.445694
v 3.760350 0.120022 0.445694
v 3.775296 0.156926 0.445694
v 3.787187 0.197719 0.445694
v 3.795870 0.242157 0.445694
v 3.801192 0.289999 0.445694
v 3.705000 0.341000 0.445694
v 3.704051 0.302332 0.445694
v 3.701241 0.266407 0.445694
v 3.696625 0.233344 0.445694
v 3.690259 0.203259 0.445694
v 3.682199 0.176272 0.445694
v 3.672500 0.152500 0.445694
v 3.661217 0.132061 0.445694
v 3.648407 0.115074 0.445694
v 3.634125 0.101656 0.445694
v 3.618426 0.091926 0.445694
v 3.601365 0.086001 0.445694
v 3.583000 0.084000 0.445694
v 3.564635 0.086001 0.445694
v 3.547574 0.091926 0.445694
v 3.531875 0.101656 0.445694
v 3.517593 0.115074 0.445694
v 3.504782 0.132061 0.445694
v 3.493500 0.152500 0.445694
v 3.483801 0.176272 0.445694
v 3.475741 0.203259 0.445694
v 3.469375 0.233344 0.445694
v 3.464759 0.266407 0.445694
v 3.461949 0.302332 0.445694
v 3.461000 0.341000 0.445694
v 3.461949 0.379668 0.445694
v 3.464760 0.415593 0.445694
v 3.469375 0.448656 0.445694
v 3.475741 0.478741 0.445694
v 3.483801 0.505728 0.445694
v 3.493500 0.529500 0.445694
v 3.504783 0.549939 0.445694
v 3.517593 0.566926 0.445694
v 3.531876 0.580344 0.445694
v 3.547575 0.590074 0.445694
v 3.564635 0.595999 0.445694
v 3.583000 0.598000 0.445694
v 3.601366 0.595999 0.445694
v 3.618426 0.590074 0.445694
v 3.634125 0.580344 0.445694
v 3.648408 0.566926 0.445694
v 3.661218 0.549939 0.445694
v 3.672500 0.529500 0.445694
v 3.682199 0.505728 0.445694
v 3.690260 0.478741 0.445694
v 3.696625 0.448656 0.445694
v 3.701241 0.415593 0.445694
v 3.704051 0.379668 0.445694
v 0.653000 0.682000 0.445694
v 0.555000 0.682000 0.445694
v 0.555000 0.385000 0.445694
v 0.173000 0.385000 0.445694
v 0.173000 0.682000 0.445694
v 0.075000 0.682000 0.445694
v 0.075000 -0.000000 0.445694
v 0.173000 -0.000000 0.445694
v 0.173000 0.297000 0.445694
v 0.555000 0.297000 0.445694
v 0.555000 -0.000000 0.445694
v 0.653000 -0.000000 0.445694
v 1.191000 0.682000 0.445694
v 0.804000 0.682000 0.445694
v 0.804000 -0.000000 0.445694
v 1.200000 -0.000000 0.445694
v 1.200000 0.088000 0.445694
v 0.902000 0.088000 0.445694
v 0.902000 0.300000 0.445694
v 1.181000 0.300000 0.445694
v 1.181000 0.388000 0.445694
v 0.902000 0.388000 0.445694
v 0.902000 0.594000 0.445694
v 1.191000 0.594000 0.445694
v 1.306000 0.682000 0.445694
v 1.306000 -0.000000 0.445694
v 1.404000 -0.000000 0.445694
v 1.404000 0.296000 0.445694
v 1.445000 0.296000 0.445694
v 1.457346 0.295604 0.445694
v 1.469519 0.294167 0.445694
v 1.481719 0.291312 0.445694
v 1.494148 0.286667 0.445694
v 1.507008 0.279854 0.445694
v 1.520500 0.270500 0.445694
v 1.534825 0.258229 0.445694
v 1.550185 0.242667 0.445694
v 1.566781 0.223437 0.445694
v 1.584815 0.200167 0.445694
v 1.604487 0.172479 0.445694
v 1.626000 0.140000 0.445694
v 1.716000 -0.000000 0.445694
v 1.833000 -0.000000 0.445694
v 1.821847 0.015411 0.445694
v 1.811793 0.029298 0.445694
v 1.802694 0.041891 0.445694
v 1.794405 0.053420 0.445694
v 1.786782 0.064116 0.445694
v 1.779683 0.074209 0.445694
v 1.772962 0.083929 0.445694
v 1.766476 0.093507 0.445694
v 1.760081 0.103172 0.445694
v 1.753632 0.113156 0.445694
v 1.746987 0.123689 0.445694
v 1.740000 0.135000 0.445694
v 1.727270 0.155792 0.445694
v 1.714991 0.175667 0.445694
v 1.703031 0.194625 0.445694
v 1.691259 0.212667 0.445694
v 1.679543 0.229792 0.445694
v 1.667750 0.246000 0.445694
v 1.655749 0.261292 0.445694
v 1.643407 0.275667 0.445694
v 1.630594 0.289125 0.445694
v 1.617176 0.301667 0.445694
v 1.603022 0.313292 0.445694
v 1.588000 0.324000 0.445694
v 1.605578 0.331869 0.445694
v 1.621792 0.340954 0.445694
v 1.636609 0.351219 0.445694
v 1.650000 0.362630 0.445694
v 1.661932 0.375152 0.445694
v 1.672375 0.388750 0.445694
v 1.681297 0.403390 0.445694
v 1.688667 0.419037 0.445694
v 1.694453 0.435656 0.445694
v 1.698625 0.453213 0.445694
v 1.701151 0.471672 0.445694
v 1.702000 0.491000 0.445694
v 1.700228 0.519546 0.445694
v 1.694991 0.546120 0.445694
v 1.686406 0.570625 0.445694
v 1.674593 0.592963 0.445694
v 1.659668 0.613037 0.445694
v 1.641750 0.630750 0.445694
v 1.620957 0.646005 0.445694
v 1.597407 0.658704 0.445694
v 1.571219 0.668750 0.445694
v 1.542509 0.676046 0.445694
v 1.511397 0.680495 0.445694
v 1.478000 0.682000 0.445694
v 1.404000 0.598000 0.445694
v 1.467000 0.598000 0.445694
v 1.489572 0.597196 0.445694
v 1.509834 0.594815 0.445694
v 1.527858 0.590906 0.445694
v 1.543713 0.585518 0.445694
v 1.557472 0.578700 0.445694
v 1.569204 0.570499 0.445694
v 1.578980 0.560966 0.445694
v 1.586871 0.550147 0.445694
v 1.592948 0.538093 0.445694
v 1.597281 0.524851 0.445694
v 1.599942 0.510471 0.445694
v 1.601000 0.495000 0.445694
v 1.600579 0.480842 0.445694
v 1.598713 0.466986 0.445694
v 1.595250 0.453609 0.445694
v 1.590037 0.440889 0.445694
v 1.582922 0.429002 0.445694
v 1.573750 0.418125 0.445694
v 1.562371 0.408436 0.445694
v 1.548630 0.400111 0.445694
v 1.532375 0.393328 0.445694
v 1.513454 0.388264 0.445694
v 1.491713 0.385095 0.445694
v 1.467000 0.384000 0.445694
v 1.404000 0.384000 0.445694
v 2.303000 0.341000 0.445694
v 2.301192 0.392001 0.445694
v 2.295871 0.439843 0.445694
v 2.287188 0.484281 0.445694
v 2.275296 0.525074 0.445694
v 2.260350 0.561978 0.445694
v 2.242500 0.594750 0.445694
v 2.221901 0.623147 0.445694
v 2.198704 0.646926 0.445694
v 2.173063 0.665844 0.445694
v 2.145130 0.679658 0.445694
v 2.115058 0.688124 0.445694
v 2.083000 0.691000 0.445694
v 2.050942 0.688124 0.445694
v 2.020871 0.679657 0.445694
v 1.992938 0.665844 0.445694
v 1.967297 0.646926 0.445694
v 1.944100 0.623147 0.445694
v 1.923500 0.594750 0.445694
v 1.905651 0.561978 0.445694
v 1.890704 0.525074 0.445694
v 1.878813 0.484281 0.445694
v 1.870130 0.439843 0.445694
v 1.864808 0.392001 0.445694
v 1.863000 0.341000 0.445694
v 1.864808 0.289999 0.445694
v 1.870130 0.242157 0.445694
v 1.878813 0.197719 0.445694
v 1.890704 0.156926 0.445694
v 1.905651 0.120022 0.445694
v 1.923500 0.087250 0.445694
v 1.944100 0.058853 0.445694
v 1.967297 0.035074 0.445694
v 1.992938 0.016156 0.445694
v 2.020871 0.002343 0.445694
v 2.050942 -0.006124 0.445694
v 2.083000 -0.009000 0.445694
v 2.115058 -0.006124 0.445694
v 2.145130 0.002343 0.445694
v 2.173063 0.016156 0.445694
v 2.198704 0.035074 0.445694
v 2.221900 0.058853 0.445694
v 2.242500 0.087250 0.445694
v 2.260350 0.120022 0.445694
v 2.275296 0.156926 0.445694
v 2.287187 0.197719 0.445694
v 2.295870 0.242157 0.445694
v 2.301192 0.289999 0.445694
v 2.205000 0.341000 0.445694
v 2.204051 0.302332 0.445694
v 2.201241 0.266407 0.445694
v 2.196625 0.233344 0.445694
v 2.190259 0.203259 0.445694
v 2.182199 0.176272 0.445694
v 2.172500 0.152500 0.445694
v 2.161217 0.132061 0.445694
v 2.148407 0.115074 0.445694
v 2.134125 0.101656 0.445694
v 2.118426 0.091926 0.445694
v 2.101365 0.086001 0.445694
v 2.083000 0.084000 0.445694
v 2.064635 0.086001 0.445694
v 2.047574 0.091926 0.445694
v 2.031875 0.101656 0.445694
v 2.017593 0.115074 0.445694
v 2.004782 0.132061 0.445694
v 1.993500 0.152500 0.445694
v 1.983801 0.176272 0.445694
v 1.975741 0.203259 0.445694
v 1.969375 0.233344 0.445694
v 1.964759 0.266407 0.445694
v 1.961949 0.302332 0.445694
v 1.961000 0.341000 0.445694
v 1.961949 0.379668 0.445694
v 1.964759 0.415593 0.445694
v 1.969375 0.448656 0.445694
v 1.975741 0.478741 0.445694
v 1.983801 0.505728 0.445694
v 1.993500 0.529500 0.445694
v 2.004783 0.549939 0.445694
v 2.017593 0.566926 0.445694
v 2.031875 0.580344 0.445694
v 2.047575 0.590074 0.445694
v 2.064635 0.595999 0.445694
v 2.083000 0.598000 0.445694
v 2.101366 0.595999 0.445694
v 2.118426 0.590074 0.445694
v 2.134125 0.580344 0.445694
v 2.148408 0.566926 0.445694
v 2.161218 0.549939 0.445694
v 2.172500 0.529500 0.445694
v 2.182199 0.505728 0.445694
v 2.190260 0.478741 0.445694
v 2.196625 0.448656 0.445694
v 2.201241 0.415593 0.445694
v 2.204051 0.379668 0.445694
v 2.799000 0.093000 0.445694
v 2.538000 0.093000 0.445694
v 2.574102 0.136478 0.445694
v 2.606482 0.176657 0.445694
v 2.635250 0.213906 0.445694
v 2.660519 0.248593 0.445694
v 2.682398 0.281085 0.445694
v 2.701000 0.311750 0.445694
v 2.716435 0.340957 0.445694
v 2.728815 0.369074 0.445694
v 2.738250 0.396469 0.445694
v 2.744852 0.423509 0.445694
v 2.748732 0.450564 0.445694
v 2.750000 0.478000 0.445694
v 2.748257 0.508660 0.445694
v 2.743134 0.537528 0.445694
v 2.734797 0.564438 0.445694
v 2.723408 0.589222 0.445694
v 2.709129 0.611715 0.445694
v 2.692125 0.631750 0.445694
v 2.672559 0.649160 0.445694
v 2.650593 0.663778 0.445694
v 2.626391 0.675438 0.445694
v 2.600116 0.683972 0.445694
v 2.571931 0.689215 0.445694
v 2.542000 0.691000 0.445694
v 2.528329 0.690561 0.445694
v 2.514796 0.689241 0.445694
v 2.501375 0.687031 0.445694
v 2.488037 0.683926 0.445694
v 2.474755 0.679918 0.445694
v 2.461500 0.675000 0.445694
v 2.448245 0.669166 0.445694
v 2.434963 0.662407 0.445694
v 2.421625 0.654719 0.445694
v 2.408204 0.646093 0.445694
v 2.394671 0.636522 0.445694
v 2.381000 0.626000 0.445694
v 2.381000 0.503000 0.445694
v 2.394648 0.519515 0.445694
v 2.408102 0.534120 0.445694
v 2.421375 0.546906 0.445694
v 2.434482 0.557963 0.445694
v 2.447436 0.567381 0.445694
v 2.460250 0.575250 0.445694
v 2.472940 0.581661 0.445694
v 2.485519 0.586704 0.445694
v 2.498000 0.590469 0.445694
v 2.510399 0.593046 0.445694
v 2.522727 0.594527 0.445694
v 2.535000 0.595000 0.445694
v 2.551377 0.593914 0.445694
v 2.566931 0.590727 0.445694
v 2.581547 0.585547 0.445694
v 2.595111 0.578481 0.445694
v 2.607509 0.569638 0.445694
v 2.618625 0.559125 0.445694
v 2.628346 0.547049 0.445694
v 2.636556 0.533518 0.445694
v 2.643141 0.518641 0.445694
v 2.647986 0.502523 0.445694
v 2.650978 0.485274 0.445694
v 2.652000 0.467000 0.445694
v 2.651670 0.453202 0.445694
v 2.650678 0.440206 0.445694
v 2.649024 0.427861 0.445694
v 2.646704 0.416016 0.445694
v 2.643717 0.404517 0.445694
v 2.640062 0.393214 0.445694
v 2.635737 0.381954 0.445694
v 2.630741 0.370587 0.445694
v 2.625070 0.358959 0.445694
v 2.618725 0.346920 0.445694
v 2.611702 0.334318 0.445694
v 2.604000 0.321000 0.445694
v 2.588585 0.295763 0.445694
v 2.571514 0.269685 0.445694
v 2.553047 0.242969 0.445694
v 2.533444 0.215815 0.445694
v 2.512967 0.188425 0.445694
v 2.491875 0.161000 0.445694
v 2.470429 0.133742 0.445694
v 2.448889 0.106852 0.445694
v 2.427516 0.080531 0.445694
v 2.406569 0.054981 0.445694
v 2.386311 0.030404 0.445694
v 2.367000 0.007000 0.445694
v 2.367000 -0.000000 0.445694
v 2.799000 -0.000000 0.445694
v 3.133000 0.682000 0.445694
v 3.035000 0.682000 0.445694
v 3.035000 -0.000000 0.445694
v 3.133000 -0.000000 0.445694
vn -0.0000 -0.0000 -1.0000
vn -0.0000 -0.0000 1.0000
vn -0.0662 -0.9978 -0.0000
vn -0.3217 -0.9468 -0.0000
vn 0.9994 0.0354 -0.0000
vn 0.9269 0.3754 -0.0000
vn -0.2007 -0.9796 -0.0000
vn -0.4440 -0.8960 -0.0000
vn 0.9997 -0.0245 -0.0000
vn 0.8755 -0.4833 -0.0000
vn -0.9997 -0.0245 -0.0000
vn -0.3340 -0.9426 -0.0000
vn -0.8755 -0.4833 -0.0000
vn -0.5729 -0.8196 -0.0000
vn -0.9994 -0.0354 -0.0000
vn 0.9087 0.4176 -0.0000
vn 0.9259 -0.3778 -0.0000
vn 0.9438 0.3306 -0.0000
vn -0.4620 -0.8869 -0.0000
vn -0.9259 -0.3778 -0.0000
vn -0.6982 -0.7159 -0.0000
vn 0.9997 0.0245 -0.0000
vn -0.9997 0.0245 -0.0000
vn -0.5807 -0.8141 -0.0000
vn -0.9600 0.2799 -0.0000
vn -0.8079 -0.5893 -0.0000
vn -0.6871 -0.7265 -0.0000
vn -0.8929 -0.4502 -0.0000
vn 0.9994 -0.0354 -0.0000
vn 0.9600 0.2799 -0.0000
vn 0.9970 0.0780 -0.0000
vn 0.9552 0.2960 -0.0000
vn 0.9582 -0.2862 -0.0000
vn 0.9811 0.1934 -0.0000
vn -0.9970 0.0780 -0.0000
vn -0.7790 -0.6271 -0.0000
vn -0.9582 -0.2862 -0.0000
vn -0.9504 -0.3110 -0.0000
vn -0.9939 -0.1106 -0.0000
vn -0.8549 -0.5188 -0.0000
vn -0.9814 0.1918 -0.0000
vn -0.9833 -0.1819 -0.0000
vn 0.9939 -0.1106 -0.0000
vn 0.9846 0.1747 -0.0000
vn 0.9814 0.1918 -0.0000
vn 0.9981 0.0620 -0.0000
vn -0.9144 -0.4047 -0.0000
vn -0.9977 -0.0682 -0.0000
vn 0.9904 0.1383 -0.0000
vn 0.9783 -0.2070 -0.0000
vn -0.9904 0.1383 -0.0000
vn -0.9577 -0.2879 -0.0000
vn -0.9783 -0.2070 -0.0000
vn -0.9996 0.0298 -0.0000
vn -0.9814 -0.1918 -0.0000
vn 0.9984 0.0568 -0.0000
vn 0.9904 -0.1383 -0.0000
vn 0.9990 -0.0439 -0.0000
vn -0.9853 -0.1709 -0.0000
vn -0.9904 -0.1383 -0.0000
vn -0.9911 0.1334 -0.0000
vn 0.9814 -0.1918 -0.0000
vn -0.9783 0.2070 -0.0000
vn -0.9984 -0.0559 -0.0000
vn -0.9939 0.1106 -0.0000
vn 0.9908 -0.1356 -0.0000
vn -0.9681 0.2506 -0.0000
vn 0.9783 0.2070 -0.0000
vn 0.9989 -0.0462 -0.0000
vn 0.9939 0.1106 -0.0000
vn -0.9582 0.2862 -0.0000
vn -0.9997 0.0239 -0.0000
vn -0.9253 0.3792 -0.0000
vn 0.9970 -0.0780 -0.0000
vn -0.9971 0.0761 -0.0000
vn -0.9970 -0.0780 -0.0000
vn 0.9582 0.2862 -0.0000
vn 0.9729 -0.2312 -0.0000
vn -0.9600 -0.2799 -0.0000
vn -0.9994 0.0354 -0.0000
vn -0.8580 0.5136 -0.0000
vn 0.9899 -0.1419 -0.0000
vn -0.9911 0.1329 -0.0000
vn 0.9600 -0.2799 -0.0000
vn 0.9444 -0.3288 -0.0000
vn -0.9259 0.3778 -0.0000
vn -0.9814 0.1922 -0.0000
vn -0.7645 0.6446 -0.0000
vn 0.9259 0.3778 -0.0000
vn 0.9715 -0.2372 -0.0000
vn 0.9047 -0.4261 -0.0000
vn -0.9269 -0.3754 -0.0000
vn -0.9679 0.2514 -0.0000
vn -0.6483 0.7614 -0.0000
vn -0.9515 0.3077 -0.0000
vn -0.5182 0.8553 -0.0000
vn 0.9269 -0.3754 -0.0000
vn -0.8755 0.4833 -0.0000
vn 0.9455 -0.3256 -0.0000
vn 0.8539 -0.5204 -0.0000
vn -0.9335 0.3586 -0.0000
vn -0.3851 0.9229 -0.0000
vn 0.8755 0.4833 -0.0000
vn -0.7984 0.6021 -0.0000
vn -0.9155 0.4024 -0.0000
vn -0.2585 0.9660 -0.0000
vn -0.8988 0.4383 -0.0000
vn 0.7984 0.6021 -0.0000
vn 0.7931 -0.6091 -0.0000
vn -0.8782 -0.4783 -0.0000
vn -0.1442 0.9895 -0.0000
vn 0.9152 -0.4030 -0.0000
vn -0.8846 0.4663 -0.0000
vn -0.0443 0.9990 -0.0000
vn 0.8782 -0.4783 -0.0000
vn -0.6847 0.7288 -0.0000
vn -0.8735 0.4868 -0.0000
vn 0.6847 0.7288 -0.0000
vn 0.8841 -0.4672 -0.0000
vn -0.0000 1.0000 -0.0000
vn -0.5268 0.8500 -0.0000
vn -0.8657 0.5006 -0.0000
vn -0.8534 0.5213 -0.0000
vn 0.7239 -0.6899 -0.0000
vn 0.5268 0.8500 -0.0000
vn -0.3281 0.9447 -0.0000
vn 0.6486 -0.7611 -0.0000
vn 0.8550 -0.5186 -0.0000
vn -0.8367 0.5477 -0.0000
vn 0.5695 -0.8220 -0.0000
vn 0.3281 0.9447 -0.0000
vn -0.8095 -0.5872 -0.0000
vn 0.4888 -0.8724 -0.0000
vn 0.8295 -0.5586 -0.0000
vn -0.8226 0.5686 -0.0000
vn 0.4086 -0.9127 -0.0000
vn 0.8095 -0.5872 -0.0000
vn -0.1083 0.9941 -0.0000
vn 0.5805 0.8143 -0.0000
vn 0.8083 -0.5888 -0.0000
vn -0.8108 0.5853 -0.0000
vn 0.6347 0.7728 -0.0000
vn 0.1083 0.9941 -0.0000
vn -0.0000 -1.0000 -0.0000
vn -0.8009 0.5988 -0.0000
vn -0.7158 -0.6983 -0.0000
vn -0.0320 -0.9995 -0.0000
vn 0.7914 -0.6113 -0.0000
vn 0.7158 -0.6983 -0.0000
vn -0.7927 0.6096 -0.0000
vn 0.6829 0.7306 -0.0000
vn -0.5937 -0.8047 -0.0000
vn 1.0000 -0.0000 -0.0000
vn 0.7786 -0.6275 -0.0000
vn -0.1173 -0.9931 -0.0000
vn 0.5937 -0.8047 -0.0000
vn -0.7859 0.6183 -0.0000
vn -0.4433 -0.8964 -0.0000
vn -0.2278 -0.9737 -0.0000
vn 0.7693 -0.6388 -0.0000
vn -0.3501 -0.9367 -0.0000
vn 0.4433 -0.8964 -0.0000
vn -0.7805 0.6252 -0.0000
vn -0.2710 -0.9626 -0.0000
vn -0.7763 0.6304 -0.0000
vn 0.7242 0.6895 -0.0000
vn -0.4681 -0.8837 -0.0000
vn 0.2710 -0.9626 -0.0000
vn -0.0894 -0.9960 -0.0000
vn -0.5698 -0.8218 -0.0000
vn 0.0894 -0.9960 -0.0000
vn -0.7733 0.6340 -0.0000
vn 0.7587 0.6514 -0.0000
vn -0.6505 -0.7595 -0.0000
vn -0.7716 0.6360 -0.0000
vn -0.7713 0.6364 -0.0000
vn 0.7867 0.6174 -0.0000
vn -0.7117 -0.7025 -0.0000
vn -1.0000 -0.0000 -0.0000
vn 0.8086 0.5883 -0.0000
vn -0.7570 -0.6534 -0.0000
vn 0.8253 0.5647 -0.0000
vn -0.0894 0.9960 -0.0000
vn -0.7904 -0.6125 -0.0000
vn 0.0894 0.9960 -0.0000
vn 0.8375 0.5465 -0.0000
vn 0.2710 0.9626 -0.0000
vn -0.8152 -0.5792 -0.0000
vn -0.2710 0.9626 -0.0000
vn 0.8458 0.5335 -0.0000
vn 0.4433 0.8964 -0.0000
vn -0.4433 0.8964 -0.0000
vn 0.8507 0.5256 -0.0000
vn -0.8337 -0.5522 -0.0000
vn 0.5937 0.8047 -0.0000
vn -0.5937 0.8047 -0.0000
vn 0.8528 0.5222 -0.0000
vn -0.8412 -0.5408 -0.0000
vn -0.7158 0.6983 -0.0000
vn 0.8508 0.5255 -0.0000
vn 0.7158 0.6983 -0.0000
vn -0.8094 0.5872 -0.0000
vn 0.8457 0.5336 -0.0000
vn 0.8400 0.5426 -0.0000
vn 0.8340 0.5518 -0.0000
vn 0.8095 0.5872 -0.0000
vn 0.8280 0.5607 -0.0000
vn 0.1083 -0.9941 -0.0000
vn -0.0321 0.9995 -0.0000
vn -0.1083 -0.9941 -0.0000
vn 0.8225 0.5687 -0.0000
vn 0.0595 0.9982 -0.0000
vn -0.0971 0.9953 -0.0000
vn 0.8179 0.5753 -0.0000
vn 0.3281 -0.9447 -0.0000
vn -0.3281 -0.9447 -0.0000
vn -0.1624 0.9867 -0.0000
vn 0.8144 0.5803 -0.0000
vn -0.8782 0.4783 -0.0000
vn 0.8119 0.5837 -0.0000
vn 0.1829 0.9831 -0.0000
vn -0.2268 0.9740 -0.0000
vn 0.8105 0.5857 -0.0000
vn 0.8782 0.4783 -0.0000
vn 0.8100 0.5864 -0.0000
vn 0.5268 -0.8500 -0.0000
vn 0.3089 0.9511 -0.0000
vn -0.5268 -0.8500 -0.0000
vn -0.2889 0.9574 -0.0000
vn 0.8101 0.5863 -0.0000
vn -0.3479 0.9375 -0.0000
vn 0.6847 -0.7288 -0.0000
vn -0.6847 -0.7288 -0.0000
vn 0.4340 0.9009 -0.0000
vn -0.4029 0.9153 -0.0000
vn 0.7984 -0.6021 -0.0000
vn -0.7984 -0.6021 -0.0000
vn -0.4535 0.8913 -0.0000
vn -0.9269 0.3754 -0.0000
vn 0.5540 0.8325 -0.0000
vn -0.4994 0.8664 -0.0000
vn -0.5407 0.8412 -0.0000
vn 0.6647 0.7471 -0.0000
vn -0.5774 0.8164 -0.0000
vn -0.6099 0.7925 -0.0000
vn -0.8095 0.5872 -0.0000
vn 0.7624 0.6471 -0.0000
vn 0.7708 -0.6370 -0.0000
vn 0.0450 0.9990 -0.0000
vn 0.7355 -0.6775 -0.0000
vn 0.1416 0.9899 -0.0000
vn 0.6938 -0.7202 -0.0000
vn 0.2463 0.9692 -0.0000
vn 0.6448 -0.7643 -0.0000
vn 0.3582 0.9337 -0.0000
vn 0.5880 -0.8088 -0.0000
vn 0.4746 0.8802 -0.0000
vn 0.5233 -0.8522 -0.0000
vn 0.5915 0.8063 -0.0000
vn 0.4509 -0.8926 -0.0000
vn 0.7030 0.7112 -0.0000
vn 0.3721 -0.9282 -0.0000
vn 0.2888 -0.9574 -0.0000
vn 0.8025 0.5966 -0.0000
vn 0.2035 -0.9791 -0.0000
vn -0.0356 -0.9994 -0.0000
vn 0.1192 -0.9929 -0.0000
vn -0.1167 -0.9932 -0.0000
vn 0.0385 -0.9993 -0.0000
vn -0.2119 -0.9773 -0.0000
vn 0.8443 0.5359 -0.0000
vn 0.8840 0.4675 -0.0000
vt 0.253731 0.000000
vt 0.251244 0.000000
vt 0.248756 0.000000
vt 0.246269 0.000000
vt 0.243781 0.000000
vt 0.241294 0.000000
vt 0.238806 0.000000
vt 0.266169 0.000000
vt 0.258706 0.000000
vt 0.261194 0.000000
vt 0.256219 0.000000
vt 0.263682 0.000000
vt 0.273632 0.000000
vt 0.271144 0.000000
vt 0.293532 0.000000
vt 0.268657 0.000000
vt 0.296020 0.000000
vt 0.291045 0.000000
vt 0.283582 0.000000
vt 0.288557 0.000000
vt 0.286070 0.000000
vt 0.281095 0.000000
vt 0.278607 0.000000
vt 0.276119 0.000000
vt 0.300995 0.000000
vt 0.298507 0.000000
vt 0.465174 0.000000
vt 0.462687 0.000000
vt 0.460199 0.000000
vt 0.457711 0.000000
vt 0.455224 0.000000
vt 0.452736 0.000000
vt 0.450249 0.000000
vt 0.447761 0.000000
vt 0.445274 0.000000
vt 0.467662 0.000000
vt 0.442786 0.000000
vt 0.529851 0.000000
vt 0.470149 0.000000
vt 0.472637 0.000000
vt 0.475124 0.000000
vt 0.440298 0.000000
vt 0.477612 0.000000
vt 0.480099 0.000000
vt 0.482587 0.000000
vt 0.437811 0.000000
vt 0.485075 0.000000
vt 0.487562 0.000000
vt 0.490050 0.000000
vt 0.435323 0.000000
vt 0.492537 0.000000
vt 0.495025 0.000000
vt 0.432836 0.000000
vt 0.497512 0.000000
vt 0.500000 0.000000
vt 0.430348 0.000000
vt 0.502488 0.000000
vt 0.427861 0.000000
vt 0.504975 0.000000
vt 0.507463 0.000000
vt 0.425373 0.000000
vt 0.509950 0.000000
vt 0.422886 0.000000
vt 0.512438 0.000000
vt 0.420398 0.000000
vt 0.514925 0.000000
vt 0.517413 0.000000
vt 0.417910 0.000000
vt 0.519901 0.000000
vt 0.522388 0.000000
vt 0.415423 0.000000
vt 0.524876 0.000000
vt 0.527363 0.000000
vt 0.305970 0.000000
vt 0.412935 0.000000
vt 0.410448 0.000000
vt 0.407960 0.000000
vt 0.405473 0.000000
vt 0.402985 0.000000
vt 0.400498 0.000000
vt 0.398010 0.000000
vt 0.308458 0.000000
vt 0.310945 0.000000
vt 0.395522 0.000000
vt 0.303483 0.000000
vt 0.313433 0.000000
vt 0.315920 0.000000
vt 0.318408 0.000000
vt 0.393035 0.000000
vt 0.320896 0.000000
vt 0.323383 0.000000
vt 0.390547 0.000000
vt 0.325871 0.000000
vt 0.388060 0.000000
vt 0.328358 0.000000
vt 0.385572 0.000000
vt 0.330846 0.000000
vt 0.383085 0.000000
vt 0.333333 0.000000
vt 0.380597 0.000000
vt 0.335821 0.000000
vt 0.378109 0.000000
vt 0.375622 0.000000
vt 0.338308 0.000000
vt 0.373134 0.000000
vt 0.340796 0.000000
vt 0.370647 0.000000
vt 0.368159 0.000000
vt 0.365672 0.000000
vt 0.363184 0.000000
vt 0.360697 0.000000
vt 0.358209 0.000000
vt 0.355721 0.000000
vt 0.353234 0.000000
vt 0.350746 0.000000
vt 0.348259 0.000000
vt 0.345771 0.000000
vt 0.343284 0.000000
vt 0.564677 0.000000
vt 0.562189 0.000000
vt 0.559702 0.000000
vt 0.557214 0.000000
vt 0.567164 0.000000
vt 0.554726 0.000000
vt 0.569652 0.000000
vt 0.552239 0.000000
vt 0.572139 0.000000
vt 0.574627 0.000000
vt 0.549751 0.000000
vt 0.577114 0.000000
vt 0.741294 0.000000
vt 0.547264 0.000000
vt 0.738806 0.000000
vt 0.743781 0.000000
vt 0.736318 0.000000
vt 0.746269 0.000000
vt 0.579602 0.000000
vt 0.544776 0.000000
vt 0.733831 0.000000
vt 0.748756 0.000000
vt 0.731343 0.000000
vt 0.751244 0.000000
vt 0.728856 0.000000
vt 0.753731 0.000000
vt 0.582090 0.000000
vt 0.542289 0.000000
vt 0.726368 0.000000
vt 0.756219 0.000000
vt 0.723881 0.000000
vt 0.758706 0.000000
vt 0.584577 0.000000
vt 0.539801 0.000000
vt 0.721393 0.000000
vt 0.761194 0.000000
vt 0.587065 0.000000
vt 0.537313 0.000000
vt 0.718905 0.000000
vt 0.763682 0.000000
vt 0.716418 0.000000
vt 0.766169 0.000000
vt 0.589552 0.000000
vt 0.534826 0.000000
vt 0.713930 0.000000
vt 0.768657 0.000000
vt 0.592040 0.000000
vt 0.532338 0.000000
vt 0.711443 0.000000
vt 0.651741 0.000000
vt 0.594527 0.000000
vt 0.708955 0.000000
vt 0.654229 0.000000
vt 0.649254 0.000000
vt 0.706468 0.000000
vt 0.656716 0.000000
vt 0.597015 0.000000
vt 0.646766 0.000000
vt 0.703980 0.000000
vt 0.659204 0.000000
vt 0.599503 0.000000
vt 0.644279 0.000000
vt 0.661692 0.000000
vt 0.701493 0.000000
vt 0.664179 0.000000
vt 0.699005 0.000000
vt 0.601990 0.000000
vt 0.641791 0.000000
vt 0.666667 0.000000
vt 0.696517 0.000000
vt 0.604478 0.000000
vt 0.639304 0.000000
vt 0.669154 0.000000
vt 0.694030 0.000000
vt 0.671642 0.000000
vt 0.691542 0.000000
vt 0.606965 0.000000
vt 0.636816 0.000000
vt 0.674129 0.000000
vt 0.689055 0.000000
vt 0.676617 0.000000
vt 0.686567 0.000000
vt 0.679105 0.000000
vt 0.684080 0.000000
vt 0.609453 0.000000
vt 0.634328 0.000000
vt 0.681592 0.000000
vt 0.611940 0.000000
vt 0.631841 0.000000
vt 0.614428 0.000000
vt 0.629353 0.000000
vt 0.616915 0.000000
vt 0.626866 0.000000
vt 0.619403 0.000000
vt 0.624378 0.000000
vt 0.621891 0.000000
vt 0.835821 0.000000
vt 0.833333 0.000000
vt 0.830846 0.000000
vt 0.838308 0.000000
vt 0.840796 0.000000
vt 0.828358 0.000000
vt 0.843284 0.000000
vt 0.825871 0.000000
vt 0.845771 0.000000
vt 0.848259 0.000000
vt 0.823383 0.000000
vt 0.850746 0.000000
vt 0.853234 0.000000
vt 0.820895 0.000000
vt 0.855721 0.000000
vt 0.858209 0.000000
vt 0.818408 0.000000
vt 0.860696 0.000000
vt 0.863184 0.000000
vt 0.815920 0.000000
vt 0.865672 0.000000
vt 0.868159 0.000000
vt 0.870647 0.000000
vt 0.873134 0.000000
vt 0.875622 0.000000
vt 0.878109 0.000000
vt 0.880597 0.000000
vt 0.883085 0.000000
vt 0.885572 0.000000
vt 0.888060 0.000000
vt 0.890547 0.000000
vt 0.893035 0.000000
vt 0.895522 0.000000
vt 0.813433 0.000000
vt 0.898010 0.000000
vt 0.900497 0.000000
vt 0.902985 0.000000
vt 0.810945 0.000000
vt 0.905473 0.000000
vt 0.907960 0.000000
vt 0.910448 0.000000
vt 0.808458 0.000000
vt 0.912935 0.000000
vt 0.915423 0.000000
vt 0.805970 0.000000
vt 0.917910 0.000000
vt 0.920398 0.000000
vt 0.803483 0.000000
vt 0.922886 0.000000
vt 0.925373 0.000000
vt 0.800995 0.000000
vt 0.927861 0.000000
vt 0.930348 0.000000
vt 0.798507 0.000000
vt 0.932836 0.000000
vt 0.935323 0.000000
vt 0.796020 0.000000
vt 0.937811 0.000000
vt 0.940298 0.000000
vt 0.793532 0.000000
vt 0.942786 0.000000
vt 0.945274 0.000000
vt 0.947761 0.000000
vt 0.791045 0.000000
vt 0.950249 0.000000
vt 0.952736 0.000000
vt 0.788557 0.000000
vt 0.955224 0.000000
vt 0.957711 0.000000
vt 0.786070 0.000000
vt 0.960199 0.000000
vt 0.783582 0.000000
vt 0.962687 0.000000
vt 0.781095 0.000000
vt 0.965174 0.000000
vt 0.967662 0.000000
vt 0.778607 0.000000
vt 0.970149 0.000000
vt 0.776119 0.000000
vt 0.972637 0.000000
vt 0.773632 0.000000
vt 0.975124 0.000000
vt 0.977612 0.000000
vt 0.771144 0.000000
vt 0.990050 0.000000
vt 0.980099 0.000000
vt 0.982587 0.000000
vt 0.985075 0.000000
vt 0.987562 0.000000
vt 0.997512 0.000000
vt 0.995025 0.000000
vt 0.992537 0.000000
vt 1.000000 0.000000
vt 0.032338 0.000000
vt 0.029851 0.000000
vt 0.027363 0.000000
vt 0.024876 0.000000
vt 0.034826 0.000000
vt 0.022388 0.000000
vt 0.037313 0.000000
vt 0.019900 0.000000
vt 0.039801 0.000000
vt 0.042289 0.000000
vt 0.017413 0.000000
vt 0.044776 0.000000
vt 0.208955 0.000000
vt 0.014925 0.000000
vt 0.206468 0.000000
vt 0.211443 0.000000
vt 0.203980 0.000000
vt 0.213930 0.000000
vt 0.047264 0.000000
vt 0.012438 0.000000
vt 0.201493 0.000000
vt 0.216418 0.000000
vt 0.199005 0.000000
vt 0.218905 0.000000
vt 0.196517 0.000000
vt 0.221393 0.000000
vt 0.049751 0.000000
vt 0.009950 0.000000
vt 0.194030 0.000000
vt 0.223881 0.000000
vt 0.191542 0.000000
vt 0.226368 0.000000
vt 0.052239 0.000000
vt 0.007463 0.000000
vt 0.189055 0.000000
vt 0.228856 0.000000
vt 0.054726 0.000000
vt 0.004975 0.000000
vt 0.186567 0.000000
vt 0.231343 0.000000
vt 0.184080 0.000000
vt 0.233831 0.000000
vt 0.057214 0.000000
vt 0.002488 0.000000
vt 0.181592 0.000000
vt 0.236318 0.000000
vt 0.059701 0.000000
vt 0.000000 0.000000
vt 0.179104 0.000000
vt 0.119403 0.000000
vt 0.062189 0.000000
vt 0.176617 0.000000
vt 0.121891 0.000000
vt 0.116915 0.000000
vt 0.174129 0.000000
vt 0.124378 0.000000
vt 0.064677 0.000000
vt 0.114428 0.000000
vt 0.171642 0.000000
vt 0.126866 0.000000
vt 0.067164 0.000000
vt 0.111940 0.000000
vt 0.129353 0.000000
vt 0.169154 0.000000
vt 0.131841 0.000000
vt 0.166667 0.000000
vt 0.069652 0.000000
vt 0.109453 0.000000
vt 0.134328 0.000000
vt 0.164179 0.000000
vt 0.072139 0.000000
vt 0.106965 0.000000
vt 0.136816 0.000000
vt 0.161692 0.000000
vt 0.139303 0.000000
vt 0.159204 0.000000
vt 0.074627 0.000000
vt 0.104478 0.000000
vt 0.141791 0.000000
vt 0.156716 0.000000
vt 0.144279 0.000000
vt 0.154229 0.000000
vt 0.146766 0.000000
vt 0.151741 0.000000
vt 0.077114 0.000000
vt 0.101990 0.000000
vt 0.149254 0.000000
vt 0.079602 0.000000
vt 0.099502 0.000000
vt 0.082090 0.000000
vt 0.097015 0.000000
vt 0.084577 0.000000
vt 0.094527 0.000000
vt 0.087065 0.000000
vt 0.092040 0.000000
vt 0.089552 0.000000
s 0
f 103/1/1 102/2/1 101/3/1
f 103/1/1 101/3/1 100/4/1
f 99/5/1 98/6/1 97/7/1
f 99/5/1 97/7/1 108/8/1
f 103/1/1 100/4/1 105/9/1
f 105/9/1 100/4/1 99/5/1
f 105/9/1 99/5/1 106/10/1
f 106/10/1 99/5/1 108/8/1
f 103/1/1 105/9/1 104/11/1
f 107/12/1 106/10/1 108/8/1
f 111/13/1 110/14/1 119/15/1
f 119/15/1 110/14/1 109/16/1
f 119/15/1 109/16/1 120/17/1
f 111/13/1 119/15/1 118/18/1
f 111/13/1 118/18/1 115/19/1
f 115/19/1 118/18/1 117/20/1
f 115/19/1 117/20/1 116/21/1
f 111/13/1 115/19/1 114/22/1
f 111/13/1 114/22/1 113/23/1
f 111/13/1 113/23/1 112/24/1
f 122/25/1 121/26/1 188/27/1
f 188/27/1 121/26/1 187/28/1
f 188/27/1 187/28/1 186/29/1
f 188/27/1 186/29/1 185/30/1
f 188/27/1 185/30/1 184/31/1
f 188/27/1 184/31/1 183/32/1
f 188/27/1 183/32/1 182/33/1
f 188/27/1 182/33/1 181/34/1
f 188/27/1 181/34/1 180/35/1
f 188/27/1 180/35/1 189/36/1
f 189/36/1 180/35/1 179/37/1
f 122/25/1 188/27/1 214/38/1
f 190/39/1 189/36/1 179/37/1
f 191/40/1 190/39/1 179/37/1
f 192/41/1 191/40/1 179/37/1
f 192/41/1 179/37/1 178/42/1
f 193/43/1 192/41/1 178/42/1
f 194/44/1 193/43/1 178/42/1
f 195/45/1 194/44/1 178/42/1
f 195/45/1 178/42/1 177/46/1
f 196/47/1 195/45/1 177/46/1
f 197/48/1 196/47/1 177/46/1
f 198/49/1 197/48/1 177/46/1
f 198/49/1 177/46/1 176/50/1
f 199/51/1 198/49/1 176/50/1
f 200/52/1 199/51/1 176/50/1
f 200/52/1 176/50/1 175/53/1
f 201/54/1 200/52/1 175/53/1
f 202/55/1 201/54/1 175/53/1
f 202/55/1 175/53/1 174/56/1
f 203/57/1 202/55/1 174/56/1
f 203/57/1 174/56/1 173/58/1
f 204/59/1 203/57/1 173/58/1
f 205/60/1 204/59/1 173/58/1
f 205/60/1 173/58/1 172/61/1
f 206/62/1 205/60/1 172/61/1
f 206/62/1 172/61/1 171/63/1
f 207/64/1 206/62/1 171/63/1
f 207/64/1 171/63/1 170/65/1
f 208/66/1 207/64/1 170/65/1
f 209/67/1 208/66/1 170/65/1
f 209/67/1 170/65/1 169/68/1
f 210/69/1 209/67/1 169/68/1
f 211/70/1 210/69/1 169/68/1
f 211/70/1 169/68/1 168/71/1
f 212/72/1 211/70/1 168/71/1
f 213/73/1 212/72/1 168/71/1
f 122/25/1 214/38/1 124/74/1
f 124/74/1 214/38/1 213/73/1
f 124/74/1 213/73/1 168/71/1
f 124/74/1 168/71/1 167/75/1
f 124/74/1 167/75/1 166/76/1
f 124/74/1 166/76/1 165/77/1
f 124/74/1 165/77/1 164/78/1
f 124/74/1 164/78/1 163/79/1
f 124/74/1 163/79/1 162/80/1
f 124/74/1 162/80/1 161/81/1
f 124/74/1 161/81/1 125/82/1
f 125/82/1 161/81/1 126/83/1
f 126/83/1 161/81/1 160/84/1
f 122/25/1 124/74/1 123/85/1
f 127/86/1 126/83/1 160/84/1
f 128/87/1 127/86/1 160/84/1
f 129/88/1 128/87/1 160/84/1
f 129/88/1 160/84/1 159/89/1
f 130/90/1 129/88/1 159/89/1
f 131/91/1 130/90/1 159/89/1
f 131/91/1 159/89/1 158/92/1
f 132/93/1 131/91/1 158/92/1
f 132/93/1 158/92/1 157/94/1
f 133/95/1 132/93/1 157/94/1
f 133/95/1 157/94/1 156/96/1
f 134/97/1 133/95/1 156/96/1
f 134/97/1 156/96/1 155/98/1
f 135/99/1 134/97/1 155/98/1
f 135/99/1 155/98/1 154/100/1
f 136/101/1 135/99/1 154/100/1
f 136/101/1 154/100/1 153/102/1
f 136/101/1 153/102/1 152/103/1
f 137/104/1 136/101/1 152/103/1
f 137/104/1 152/103/1 151/105/1
f 138/106/1 137/104/1 151/105/1
f 138/106/1 151/105/1 150/107/1
f 138/106/1 150/107/1 149/108/1
f 138/106/1 149/108/1 148/109/1
f 138/106/1 148/109/1 147/110/1
f 138/106/1 147/110/1 146/111/1
f 138/106/1 146/111/1 145/112/1
f 138/106/1 145/112/1 144/113/1
f 138/106/1 144/113/1 143/114/1
f 138/106/1 143/114/1 142/115/1
f 138/106/1 142/115/1 141/116/1
f 138/106/1 141/116/1 140/117/1
f 138/106/1 140/117/1 139/118/1
f 228/119/1 227/120/1 226/121/1
f 228/119/1 226/121/1 225/122/1
f 229/123/1 228/119/1 225/122/1
f 229/123/1 225/122/1 224/124/1
f 230/125/1 229/123/1 224/124/1
f 230/125/1 224/124/1 223/126/1
f 231/127/1 230/125/1 223/126/1
f 232/128/1 231/127/1 223/126/1
f 232/128/1 223/126/1 222/129/1
f 233/130/1 232/128/1 222/129/1
f 233/130/1 222/129/1 299/131/1
f 299/131/1 222/129/1 221/132/1
f 233/130/1 299/131/1 298/133/1
f 300/134/1 299/131/1 221/132/1
f 233/130/1 298/133/1 297/135/1
f 301/136/1 300/134/1 221/132/1
f 234/137/1 233/130/1 297/135/1
f 301/136/1 221/132/1 220/138/1
f 234/137/1 297/135/1 296/139/1
f 302/140/1 301/136/1 220/138/1
f 234/137/1 296/139/1 295/141/1
f 303/142/1 302/140/1 220/138/1
f 234/137/1 295/141/1 294/143/1
f 304/144/1 303/142/1 220/138/1
f 235/145/1 234/137/1 294/143/1
f 304/144/1 220/138/1 219/146/1
f 235/145/1 294/143/1 293/147/1
f 305/148/1 304/144/1 219/146/1
f 235/145/1 293/147/1 292/149/1
f 306/150/1 305/148/1 219/146/1
f 236/151/1 235/145/1 292/149/1
f 306/150/1 219/146/1 218/152/1
f 236/151/1 292/149/1 291/153/1
f 307/154/1 306/150/1 218/152/1
f 237/155/1 236/151/1 291/153/1
f 307/154/1 218/152/1 217/156/1
f 237/155/1 291/153/1 290/157/1
f 308/158/1 307/154/1 217/156/1
f 237/155/1 290/157/1 289/159/1
f 309/160/1 308/158/1 217/156/1
f 238/161/1 237/155/1 289/159/1
f 309/160/1 217/156/1 216/162/1
f 238/161/1 289/159/1 288/163/1
f 310/164/1 309/160/1 216/162/1
f 239/165/1 238/161/1 288/163/1
f 310/164/1 216/162/1 215/166/1
f 239/165/1 288/163/1 287/167/1
f 263/168/1 310/164/1 215/166/1
f 240/169/1 239/165/1 287/167/1
f 240/169/1 287/167/1 286/170/1
f 264/171/1 263/168/1 215/166/1
f 264/171/1 215/166/1 262/172/1
f 240/169/1 286/170/1 285/173/1
f 265/174/1 264/171/1 262/172/1
f 241/175/1 240/169/1 285/173/1
f 265/174/1 262/172/1 261/176/1
f 241/175/1 285/173/1 284/177/1
f 266/178/1 265/174/1 261/176/1
f 242/179/1 241/175/1 284/177/1
f 266/178/1 261/176/1 260/180/1
f 267/181/1 266/178/1 260/180/1
f 242/179/1 284/177/1 283/182/1
f 268/183/1 267/181/1 260/180/1
f 242/179/1 283/182/1 282/184/1
f 243/185/1 242/179/1 282/184/1
f 268/183/1 260/180/1 259/186/1
f 269/187/1 268/183/1 259/186/1
f 243/185/1 282/184/1 281/188/1
f 244/189/1 243/185/1 281/188/1
f 269/187/1 259/186/1 258/190/1
f 270/191/1 269/187/1 258/190/1
f 244/189/1 281/188/1 280/192/1
f 271/193/1 270/191/1 258/190/1
f 244/189/1 280/192/1 279/194/1
f 245/195/1 244/189/1 279/194/1
f 271/193/1 258/190/1 257/196/1
f 272/197/1 271/193/1 257/196/1
f 245/195/1 279/194/1 278/198/1
f 273/199/1 272/197/1 257/196/1
f 245/195/1 278/198/1 277/200/1
f 274/201/1 273/199/1 257/196/1
f 245/195/1 277/200/1 276/202/1
f 246/203/1 245/195/1 276/202/1
f 274/201/1 257/196/1 256/204/1
f 275/205/1 274/201/1 256/204/1
f 246/203/1 276/202/1 275/205/1
f 246/203/1 275/205/1 256/204/1
f 247/206/1 246/203/1 256/204/1
f 247/206/1 256/204/1 255/207/1
f 248/208/1 247/206/1 255/207/1
f 248/208/1 255/207/1 254/209/1
f 249/210/1 248/208/1 254/209/1
f 249/210/1 254/209/1 253/211/1
f 250/212/1 249/210/1 253/211/1
f 250/212/1 253/211/1 252/213/1
f 251/214/1 250/212/1 252/213/1
f 337/215/1 336/216/1 335/217/1
f 338/218/1 337/215/1 335/217/1
f 339/219/1 338/218/1 335/217/1
f 339/219/1 335/217/1 334/220/1
f 340/221/1 339/219/1 334/220/1
f 340/221/1 334/220/1 333/222/1
f 341/223/1 340/221/1 333/222/1
f 342/224/1 341/223/1 333/222/1
f 342/224/1 333/222/1 332/225/1
f 343/226/1 342/224/1 332/225/1
f 344/227/1 343/226/1 332/225/1
f 344/227/1 332/225/1 331/228/1
f 345/229/1 344/227/1 331/228/1
f 346/230/1 345/229/1 331/228/1
f 346/230/1 331/228/1 330/231/1
f 347/232/1 346/230/1 330/231/1
f 348/233/1 347/232/1 330/231/1
f 348/233/1 330/231/1 329/234/1
f 349/235/1 348/233/1 350/236/1
f 350/236/1 348/233/1 351/237/1
f 351/237/1 348/233/1 352/238/1
f 352/238/1 348/233/1 353/239/1
f 353/239/1 348/233/1 354/240/1
f 354/240/1 348/233/1 355/241/1
f 355/241/1 348/233/1 356/242/1
f 356/242/1 348/233/1 357/243/1
f 357/243/1 348/233/1 358/244/1
f 358/244/1 348/233/1 359/245/1
f 359/245/1 348/233/1 360/246/1
f 360/246/1 348/233/1 329/234/1
f 360/246/1 329/234/1 361/247/1
f 361/247/1 329/234/1 328/248/1
f 362/249/1 361/247/1 328/248/1
f 363/250/1 362/249/1 328/248/1
f 364/251/1 363/250/1 328/248/1
f 364/251/1 328/248/1 327/252/1
f 365/253/1 364/251/1 327/252/1
f 366/254/1 365/253/1 327/252/1
f 367/255/1 366/254/1 327/252/1
f 367/255/1 327/252/1 326/256/1
f 368/257/1 367/255/1 326/256/1
f 369/258/1 368/257/1 326/256/1
f 369/258/1 326/256/1 325/259/1
f 370/260/1 369/258/1 325/259/1
f 371/261/1 370/260/1 325/259/1
f 371/261/1 325/259/1 324/262/1
f 372/263/1 371/261/1 324/262/1
f 373/264/1 372/263/1 324/262/1
f 373/264/1 324/262/1 323/265/1
f 374/266/1 373/264/1 323/265/1
f 375/267/1 374/266/1 323/265/1
f 375/267/1 323/265/1 322/268/1
f 376/269/1 375/267/1 322/268/1
f 377/270/1 376/269/1 322/268/1
f 377/270/1 322/268/1 321/271/1
f 378/272/1 377/270/1 321/271/1
f 379/273/1 378/272/1 321/271/1
f 379/273/1 321/271/1 320/274/1
f 380/275/1 379/273/1 320/274/1
f 381/276/1 380/275/1 320/274/1
f 382/277/1 381/276/1 320/274/1
f 382/277/1 320/274/1 319/278/1
f 383/279/1 382/277/1 319/278/1
f 384/280/1 383/279/1 319/278/1
f 384/280/1 319/278/1 318/281/1
f 385/282/1 384/280/1 318/281/1
f 386/283/1 385/282/1 318/281/1
f 386/283/1 318/281/1 317/284/1
f 387/285/1 386/283/1 317/284/1
f 387/285/1 317/284/1 316/286/1
f 388/287/1 387/285/1 316/286/1
f 388/287/1 316/286/1 315/288/1
f 389/289/1 388/287/1 315/288/1
f 390/290/1 389/289/1 315/288/1
f 390/290/1 315/288/1 314/291/1
f 391/292/1 390/290/1 314/291/1
f 391/292/1 314/291/1 313/293/1
f 392/294/1 391/292/1 313/293/1
f 392/294/1 313/293/1 312/295/1
f 393/296/1 392/294/1 312/295/1
f 394/297/1 393/296/1 312/295/1
f 394/297/1 312/295/1 311/298/1
f 394/297/1 311/298/1 399/299/1
f 395/300/1 394/297/1 399/299/1
f 396/301/1 395/300/1 399/299/1
f 397/302/1 396/301/1 399/299/1
f 398/303/1 397/302/1 399/299/1
f 402/304/1 401/305/1 400/306/1
f 402/304/1 400/306/1 403/307/1
f 14/308/1 13/309/1 12/310/1
f 14/308/1 12/310/1 11/311/1
f 15/312/1 14/308/1 11/311/1
f 15/312/1 11/311/1 10/313/1
f 16/314/1 15/312/1 10/313/1
f 16/314/1 10/313/1 9/315/1
f 17/316/1 16/314/1 9/315/1
f 18/317/1 17/316/1 9/315/1
f 18/317/1 9/315/1 8/318/1
f 19/319/1 18/317/1 8/318/1
f 19/319/1 8/318/1 85/320/1
f 85/320/1 8/318/1 7/321/1
f 19/319/1 85/320/1 84/322/1
f 86/323/1 85/320/1 7/321/1
f 19/319/1 84/322/1 83/324/1
f 87/325/1 86/323/1 7/321/1
f 20/326/1 19/319/1 83/324/1
f 87/325/1 7/321/1 6/327/1
f 20/326/1 83/324/1 82/328/1
f 88/329/1 87/325/1 6/327/1
f 20/326/1 82/328/1 81/330/1
f 89/331/1 88/329/1 6/327/1
f 20/326/1 81/330/1 80/332/1
f 90/333/1 89/331/1 6/327/1
f 21/334/1 20/326/1 80/332/1
f 90/333/1 6/327/1 5/335/1
f 21/334/1 80/332/1 79/336/1
f 91/337/1 90/333/1 5/335/1
f 21/334/1 79/336/1 78/338/1
f 92/339/1 91/337/1 5/335/1
f 22/340/1 21/334/1 78/338/1
f 92/339/1 5/335/1 4/341/1
f 22/340/1 78/338/1 77/342/1
f 93/343/1 92/339/1 4/341/1
f 23/344/1 22/340/1 77/342/1
f 93/343/1 4/341/1 3/345/1
f 23/344/1 77/342/1 76/346/1
f 94/347/1 93/343/1 3/345/1
f 23/344/1 76/346/1 75/348/1
f 95/349/1 94/347/1 3/345/1
f 24/350/1 23/344/1 75/348/1
f 95/349/1 3/345/1 2/351/1
f 24/350/1 75/348/1 74/352/1
f 96/353/1 95/349/1 2/351/1
f 25/354/1 24/350/1 74/352/1
f 96/353/1 2/351/1 1/355/1
f 25/354/1 74/352/1 73/356/1
f 49/357/1 96/353/1 1/355/1
f 26/358/1 25/354/1 73/356/1
f 26/358/1 73/356/1 72/359/1
f 50/360/1 49/357/1 1/355/1
f 50/360/1 1/355/1 48/361/1
f 26/358/1 72/359/1 71/362/1
f 51/363/1 50/360/1 48/361/1
f 27/364/1 26/358/1 71/362/1
f 51/363/1 48/361/1 47/365/1
f 27/364/1 71/362/1 70/366/1
f 52/367/1 51/363/1 47/365/1
f 28/368/1 27/364/1 70/366/1
f 52/367/1 47/365/1 46/369/1
f 53/370/1 52/367/1 46/369/1
f 28/368/1 70/366/1 69/371/1
f 54/372/1 53/370/1 46/369/1
f 28/368/1 69/371/1 68/373/1
f 29/374/1 28/368/1 68/373/1
f 54/372/1 46/369/1 45/375/1
f 55/376/1 54/372/1 45/375/1
f 29/374/1 68/373/1 67/377/1
f 30/378/1 29/374/1 67/377/1
f 55/376/1 45/375/1 44/379/1
f 56/380/1 55/376/1 44/379/1
f 30/378/1 67/377/1 66/381/1
f 57/382/1 56/380/1 44/379/1
f 30/378/1 66/381/1 65/383/1
f 31/384/1 30/378/1 65/383/1
f 57/382/1 44/379/1 43/385/1
f 58/386/1 57/382/1 43/385/1
f 31/384/1 65/383/1 64/387/1
f 59/388/1 58/386/1 43/385/1
f 31/384/1 64/387/1 63/389/1
f 60/390/1 59/388/1 43/385/1
f 31/384/1 63/389/1 62/391/1
f 32/392/1 31/384/1 62/391/1
f 60/390/1 43/385/1 42/393/1
f 61/394/1 60/390/1 42/393/1
f 32/392/1 62/391/1 61/394/1
f 32/392/1 61/394/1 42/393/1
f 33/395/1 32/392/1 42/393/1
f 33/395/1 42/393/1 41/396/1
f 34/397/1 33/395/1 41/396/1
f 34/397/1 41/396/1 40/398/1
f 35/399/1 34/397/1 40/398/1
f 35/399/1 40/398/1 39/400/1
f 36/401/1 35/399/1 39/400/1
f 36/401/1 39/400/1 38/402/1
f 37/403/1 36/401/1 38/402/1
f 506/1/2 504/3/2 505/2/2
f 506/1/2 503/4/2 504/3/2
f 502/5/2 500/7/2 501/6/2
f 502/5/2 511/8/2 500/7/2
f 506/1/2 508/9/2 503/4/2
f 508/9/2 502/5/2 503/4/2
f 508/9/2 509/10/2 502/5/2
f 509/10/2 511/8/2 502/5/2
f 506/1/2 507/11/2 508/9/2
f 510/12/2 511/8/2 509/10/2
f 514/13/2 522/15/2 513/14/2
f 522/15/2 512/16/2 513/14/2
f 522/15/2 523/17/2 512/16/2
f 514/13/2 521/18/2 522/15/2
f 514/13/2 518/19/2 521/18/2
f 518/19/2 520/20/2 521/18/2
f 518/19/2 519/21/2 520/20/2
f 514/13/2 517/22/2 518/19/2
f 514/13/2 516/23/2 517/22/2
f 514/13/2 515/24/2 516/23/2
f 525/25/2 591/27/2 524/26/2
f 591/27/2 590/28/2 524/26/2
f 591/27/2 589/29/2 590/28/2
f 591/27/2 588/30/2 589/29/2
f 591/27/2 587/31/2 588/30/2
f 591/27/2 586/32/2 587/31/2
f 591/27/2 585/33/2 586/32/2
f 591/27/2 584/34/2 585/33/2
f 591/27/2 583/35/2 584/34/2
f 591/27/2 592/36/2 583/35/2
f 592/36/2 582/37/2 583/35/2
f 525/25/2 617/38/2 591/27/2
f 593/39/2 582/37/2 592/36/2
f 594/40/2 582/37/2 593/39/2
f 595/41/2 582/37/2 594/40/2
f 595/41/2 581/42/2 582/37/2
f 596/43/2 581/42/2 595/41/2
f 597/44/2 581/42/2 596/43/2
f 598/45/2 581/42/2 597/44/2
f 598/45/2 580/46/2 581/42/2
f 599/47/2 580/46/2 598/45/2
f 600/48/2 580/46/2 599/47/2
f 601/49/2 580/46/2 600/48/2
f 601/49/2 579/50/2 580/46/2
f 602/51/2 579/50/2 601/49/2
f 603/52/2 579/50/2 602/51/2
f 603/52/2 578/53/2 579/50/2
f 604/54/2 578/53/2 603/52/2
f 605/55/2 578/53/2 604/54/2
f 605/55/2 577/56/2 578/53/2
f 606/57/2 577/56/2 605/55/2
f 606/57/2 576/58/2 577/56/2
f 607/59/2 576/58/2 606/57/2
f 608/60/2 576/58/2 607/59/2
f 608/60/2 575/61/2 576/58/2
f 609/62/2 575/61/2 608/60/2
f 609/62/2 574/63/2 575/61/2
f 610/64/2 574/63/2 609/62/2
f 610/64/2 573/65/2 574/63/2
f 611/66/2 573/65/2 610/64/2
f 612/67/2 573/65/2 611/66/2
f 612/67/2 572/68/2 573/65/2
f 613/69/2 572/68/2 612/67/2
f 614/70/2 572/68/2 613/69/2
f 614/70/2 571/71/2 572/68/2
f 615/72/2 571/71/2 614/70/2
f 616/73/2 571/71/2 615/72/2
f 525/25/2 527/74/2 617/38/2
f 527/74/2 616/73/2 617/38/2
f 527/74/2 571/71/2 616/73/2
f 527/74/2 570/75/2 571/71/2
f 527/74/2 569/76/2 570/75/2
f 527/74/2 568/77/2 569/76/2
f 527/74/2 567/78/2 568/77/2
f 527/74/2 566/79/2 567/78/2
f 527/74/2 565/80/2 566/79/2
f 527/74/2 564/81/2 565/80/2
f 527/74/2 528/82/2 564/81/2
f 528/82/2 529/83/2 564/81/2
f 529/83/2 563/84/2 564/81/2
f 525/25/2 526/85/2 527/74/2
f 530/86/2 563/84/2 529/83/2
f 531/87/2 563/84/2 530/86/2
f 532/88/2 563/84/2 531/87/2
f 532/88/2 562/89/2 563/84/2
f 533/90/2 562/89/2 532/88/2
f 534/91/2 562/89/2 533/90/2
f 534/91/2 561/92/2 562/89/2
f 535/93/2 561/92/2 534/91/2
f 535/93/2 560/94/2 561/92/2
f 536/95/2 560/94/2 535/93/2
f 536/95/2 559/96/2 560/94/2
f 537/97/2 559/96/2 536/95/2
f 537/97/2 558/98/2 559/96/2
f 538/99/2 558/98/2 537/97/2
f 538/99/2 557/100/2 558/98/2
f 539/101/2 557/100/2 538/99/2
f 539/101/2 556/102/2 557/100/2
f 539/101/2 555/103/2 556/102/2
f 540/104/2 555/103/2 539/101/2
f 540/104/2 554/105/2 555/103/2
f 541/106/2 554/105/2 540/104/2
f 541/106/2 553/107/2 554/105/2
f 541/106/2 552/108/2 553/107/2
f 541/106/2 551/109/2 552/108/2
f 541/106/2 550/110/2 551/109/2
f 541/106/2 549/111/2 550/110/2
f 541/106/2 548/112/2 549/111/2
f 541/106/2 547/113/2 548/112/2
f 541/106/2 546/114/2 547/113/2
f 541/106/2 545/115/2 546/114/2
f 541/106/2 544/116/2 545/115/2
f 541/106/2 543/117/2 544/116/2
f 541/106/2 542/118/2 543/117/2
f 631/119/2 629/121/2 630/120/2
f 631/119/2 628/122/2 629/121/2
f 632/123/2 628/122/2 631/119/2
f 632/123/2 627/124/2 628/122/2
f 633/125/2 627/124/2 632/123/2
f 633/125/2 626/126/2 627/124/2
f 634/127/2 626/126/2 633/125/2
f 635/128/2 626/126/2 634/127/2
f 635/128/2 625/129/2 626/126/2
f 636/130/2 625/129/2 635/128/2
f 636/130/2 702/131/2 625/129/2
f 702/131/2 624/132/2 625/129/2
f 636/130/2 701/133/2 702/131/2
f 703/134/2 624/132/2 702/131/2
f 636/130/2 700/135/2 701/133/2
f 704/136/2 624/132/2 703/134/2
f 637/137/2 700/135/2 636/130/2
f 704/136/2 623/138/2 624/132/2
f 637/137/2 699/139/2 700/135/2
f 705/140/2 623/138/2 704/136/2
f 637/137/2 698/141/2 699/139/2
f 706/142/2 623/138/2 705/140/2
f 637/137/2 697/143/2 698/141/2
f 707/144/2 623/138/2 706/142/2
f 638/145/2 697/143/2 637/137/2
f 707/144/2 622/146/2 623/138/2
f 638/145/2 696/147/2 697/143/2
f 708/148/2 622/146/2 707/144/2
f 638/145/2 695/149/2 696/147/2
f 709/150/2 622/146/2 708/148/2
f 639/151/2 695/149/2 638/145/2
f 709/150/2 621/152/2 622/146/2
f 639/151/2 694/153/2 695/149/2
f 710/154/2 621/152/2 709/150/2
f 640/155/2 694/153/2 639/151/2
f 710/154/2 620/156/2 621/152/2
f 640/155/2 693/157/2 694/153/2
f 711/158/2 620/156/2 710/154/2
f 640/155/2 692/159/2 693/157/2
f 712/160/2 620/156/2 711/158/2
f 641/161/2 692/159/2 640/155/2
f 712/160/2 619/162/2 620/156/2
f 641/161/2 691/163/2 692/159/2
f 713/164/2 619/162/2 712/160/2
f 642/165/2 691/163/2 641/161/2
f 713/164/2 618/166/2 619/162/2
f 642/165/2 690/167/2 691/163/2
f 666/168/2 618/166/2 713/164/2
f 643/169/2 690/167/2 642/165/2
f 643/169/2 689/170/2 690/167/2
f 667/171/2 618/166/2 666/168/2
f 667/171/2 665/172/2 618/166/2
f 643/169/2 688/173/2 689/170/2
f 668/174/2 665/172/2 667/171/2
f 644/175/2 688/173/2 643/169/2
f 668/174/2 664/176/2 665/172/2
f 644/175/2 687/177/2 688/173/2
f 669/178/2 664/176/2 668/174/2
f 645/179/2 687/177/2 644/175/2
f 669/178/2 663/180/2 664/176/2
f 670/181/2 663/180/2 669/178/2
f 645/179/2 686/182/2 687/177/2
f 671/183/2 663/180/2 670/181/2
f 645/179/2 685/184/2 686/182/2
f 646/185/2 685/184/2 645/179/2
f 671/183/2 662/186/2 663/180/2
f 672/187/2 662/186/2 671/183/2
f 646/185/2 684/188/2 685/184/2
f 647/189/2 684/188/2 646/185/2
f 672/187/2 661/190/2 662/186/2
f 673/191/2 661/190/2 672/187/2
f 647/189/2 683/192/2 684/188/2
f 674/193/2 661/190/2 673/191/2
f 647/189/2 682/194/2 683/192/2
f 648/195/2 682/194/2 647/189/2
f 674/193/2 660/196/2 661/190/2
f 675/197/2 660/196/2 674/193/2
f 648/195/2 681/198/2 682/194/2
f 676/199/2 660/196/2 675/197/2
f 648/195/2 680/200/2 681/198/2
f 677/201/2 660/196/2 676/199/2
f 648/195/2 679/202/2 680/200/2
f 649/203/2 679/202/2 648/195/2
f 677/201/2 659/204/2 660/196/2
f 678/205/2 659/204/2 677/201/2
f 649/203/2 678/205/2 679/202/2
f 649/203/2 659/204/2 678/205/2
f 650/206/2 659/204/2 649/203/2
f 650/206/2 658/207/2 659/204/2
f 651/208/2 658/207/2 650/206/2
f 651/208/2 657/209/2 658/207/2
f 652/210/2 657/209/2 651/208/2
f 652/210/2 656/211/2 657/209/2
f 653/212/2 656/211/2 652/210/2
f 653/212/2 655/213/2 656/211/2
f 654/214/2 655/213/2 653/212/2
f 740/215/2 738/217/2 739/216/2
f 741/218/2 738/217/2 740/215/2
f 742/219/2 738/217/2 741/218/2
f 742/219/2 737/220/2 738/217/2
f 743/221/2 737/220/2 742/219/2
f 743/221/2 736/222/2 737/220/2
f 744/223/2 736/222/2 743/221/2
f 745/224/2 736/222/2 744/223/2
f 745/224/2 735/225/2 736/222/2
f 746/226/2 735/225/2 745/224/2
f 747/227/2 735/225/2 746/226/2
f 747/227/2 734/228/2 735/225/2
f 748/229/2 734/228/2 747/227/2
f 749/230/2 734/228/2 748/229/2
f 749/230/2 733/231/2 734/228/2
f 750/232/2 733/231/2 749/230/2
f 751/233/2 733/231/2 750/232/2
f 751/233/2 732/234/2 733/231/2
f 752/235/2 753/236/2 751/233/2
f 753/236/2 754/237/2 751/233/2
f 754/237/2 755/238/2 751/233/2
f 755/238/2 756/239/2 751/233/2
f 756/239/2 757/240/2 751/233/2
f 757/240/2 758/241/2 751/233/2
f 758/241/2 759/242/2 751/233/2
f 759/242/2 760/243/2 751/233/2
f 760/243/2 761/244/2 751/233/2
f 761/244/2 762/245/2 751/233/2
f 762/245/2 763/246/2 751/233/2
f 763/246/2 732/234/2 751/233/2
f 763/246/2 764/247/2 732/234/2
f 764/247/2 731/248/2 732/234/2
f 765/249/2 731/248/2 764/247/2
f 766/250/2 731/248/2 765/249/2
f 767/251/2 731/248/2 766/250/2
f 767/251/2 730/252/2 731/248/2
f 768/253/2 730/252/2 767/251/2
f 769/254/2 730/252/2 768/253/2
f 770/255/2 730/252/2 769/254/2
f 770/255/2 729/256/2 730/252/2
f 771/257/2 729/256/2 770/255/2
f 772/258/2 729/256/2 771/257/2
f 772/258/2 728/259/2 729/256/2
f 773/260/2 728/259/2 772/258/2
f 774/261/2 728/259/2 773/260/2
f 774/261/2 727/262/2 728/259/2
f 775/263/2 727/262/2 774/261/2
f 776/264/2 727/262/2 775/263/2
f 776/264/2 726/265/2 727/262/2
f 777/266/2 726/265/2 776/264/2
f 778/267/2 726/265/2 777/266/2
f 778/267/2 725/268/2 726/265/2
f 779/269/2 725/268/2 778/267/2
f 780/270/2 725/268/2 779/269/2
f 780/270/2 724/271/2 725/268/2
f 781/272/2 724/271/2 780/270/2
f 782/273/2 724/271/2 781/272/2
f 782/273/2 723/274/2 724/271/2
f 783/275/2 723/274/2 782/273/2
f 784/276/2 723/274/2 783/275/2
f 785/277/2 723/274/2 784/276/2
f 785/277/2 722/278/2 723/274/2
f 786/279/2 722/278/2 785/277/2
f 787/280/2 722/278/2 786/279/2
f 787/280/2 721/281/2 722/278/2
f 788/282/2 721/281/2 787/280/2
f 789/283/2 721/281/2 788/282/2
f 789/283/2 720/284/2 721/281/2
f 790/285/2 720/284/2 789/283/2
f 790/285/2 719/286/2 720/284/2
f 791/287/2 719/286/2 790/285/2
f 791/287/2 718/288/2 719/286/2
f 792/289/2 718/288/2 791/287/2
f 793/290/2 718/288/2 792/289/2
f 793/290/2 717/291/2 718/288/2
f 794/292/2 717/291/2 793/290/2
f 794/292/2 716/293/2 717/291/2
f 795/294/2 716/293/2 794/292/2
f 795/294/2 715/295/2 716/293/2
f 796/296/2 715/295/2 795/294/2
f 797/297/2 715/295/2 796/296/2
f 797/297/2 714/298/2 715/295/2
f 797/297/2 802/299/2 714/298/2
f 798/300/2 802/299/2 797/297/2
f 799/301/2 802/299/2 798/300/2
f 800/302/2 802/299/2 799/301/2
f 801/303/2 802/299/2 800/302/2
f 805/304/2 803/306/2 804/305/2
f 805/304/2 806/307/2 803/306/2
f 417/308/2 415/310/2 416/309/2
f 417/308/2 414/311/2 415/310/2
f 418/312/2 414/311/2 417/308/2
f 418/312/2 413/313/2 414/311/2
f 419/314/2 413/313/2 418/312/2
f 419/314/2 412/315/2 413/313/2
f 420/316/2 412/315/2 419/314/2
f 421/317/2 412/315/2 420/316/2
f 421/317/2 411/318/2 412/315/2
f 422/319/2 411/318/2 421/317/2
f 422/319/2 488/320/2 411/318/2
f 488/320/2 410/321/2 411/318/2
f 422/319/2 487/322/2 488/320/2
f 489/323/2 410/321/2 488/320/2
f 422/319/2 486/324/2 487/322/2
f 490/325/2 410/321/2 489/323/2
f 423/326/2 486/324/2 422/319/2
f 490/325/2 409/327/2 410/321/2
f 423/326/2 485/328/2 486/324/2
f 491/329/2 409/327/2 490/325/2
f 423/326/2 484/330/2 485/328/2
f 492/331/2 409/327/2 491/329/2
f 423/326/2 483/332/2 484/330/2
f 493/333/2 409/327/2 492/331/2
f 424/334/2 483/332/2 423/326/2
f 493/333/2 408/335/2 409/327/2
f 424/334/2 482/336/2 483/332/2
f 494/337/2 408/335/2 493/333/2
f 424/334/2 481/338/2 482/336/2
f 495/339/2 408/335/2 494/337/2
f 425/340/2 481/338/2 424/334/2
f 495/339/2 407/341/2 408/335/2
f 425/340/2 480/342/2 481/338/2
f 496/343/2 407/341/2 495/339/2
f 426/344/2 480/342/2 425/340/2
f 496/343/2 406/345/2 407/341/2
f 426/344/2 479/346/2 480/342/2
f 497/347/2 406/345/2 496/343/2
f 426/344/2 478/348/2 479/346/2
f 498/349/2 406/345/2 497/347/2
f 427/350/2 478/348/2 426/344/2
f 498/349/2 405/351/2 406/345/2
f 427/350/2 477/352/2 478/348/2
f 499/353/2 405/351/2 498/349/2
f 428/354/2 477/352/2 427/350/2
f 499/353/2 404/355/2 405/351/2
f 428/354/2 476/356/2 477/352/2
f 452/357/2 404/355/2 499/353/2
f 429/358/2 476/356/2 428/354/2
f 429/358/2 475/359/2 476/356/2
f 453/360/2 404/355/2 452/357/2
f 453/360/2 451/361/2 404/355/2
f 429/358/2 474/362/2 475/359/2
f 454/363/2 451/361/2 453/360/2
f 430/364/2 474/362/2 429/358/2
f 454/363/2 450/365/2 451/361/2
f 430/364/2 473/366/2 474/362/2
f 455/367/2 450/365/2 454/363/2
f 431/368/2 473/366/2 430/364/2
f 455/367/2 449/369/2 450/365/2
f 456/370/2 449/369/2 455/367/2
f 431/368/2 472/371/2 473/366/2
f 457/372/2 449/369/2 456/370/2
f 431/368/2 471/373/2 472/371/2
f 432/374/2 471/373/2 431/368/2
f 457/372/2 448/375/2 449/369/2
f 458/376/2 448/375/2 457/372/2
f 432/374/2 470/377/2 471/373/2
f 433/378/2 470/377/2 432/374/2
f 458/376/2 447/379/2 448/375/2
f 459/380/2 447/379/2 458/376/2
f 433/378/2 469/381/2 470/377/2
f 460/382/2 447/379/2 459/380/2
f 433/378/2 468/383/2 469/381/2
f 434/384/2 468/383/2 433/378/2
f 460/382/2 446/385/2 447/379/2
f 461/386/2 446/385/2 460/382/2
f 434/384/2 467/387/2 468/383/2
f 462/388/2 446/385/2 461/386/2
f 434/384/2 466/389/2 467/387/2
f 463/390/2 446/385/2 462/388/2
f 434/384/2 465/391/2 466/389/2
f 435/392/2 465/391/2 434/384/2
f 463/390/2 445/393/2 446/385/2
f 464/394/2 445/393/2 463/390/2
f 435/392/2 464/394/2 465/391/2
f 435/392/2 445/393/2 464/394/2
f 436/395/2 445/393/2 435/392/2
f 436/395/2 444/396/2 445/393/2
f 437/397/2 444/396/2 436/395/2
f 437/397/2 443/398/2 444/396/2
f 438/399/2 443/398/2 437/397/2
f 438/399/2 442/400/2 443/398/2
f 439/401/2 442/400/2 438/399/2
f 439/401/2 441/402/2 442/400/2
f 440/403/2 441/402/2 439/401/2
f 361/247/3 362/249/3 765/249/3 764/247/3
f 192/41/4 193/43/4 596/43/4 595/41/4
f 1/355/5 2/351/5 405/351/5 404/355/5
f 219/146/6 220/138/6 623/138/6 622/146/6
f 362/249/7 363/250/7 766/250/7 765/249/7
f 193/43/8 194/44/8 597/44/8 596/43/8
f 73/356/9 74/352/9 477/352/9 476/356/9
f 293/147/10 294/143/10 697/143/10 696/147/10
f 96/353/11 49/357/11 452/357/11 499/353/11
f 363/250/12 364/251/12 767/251/12 766/250/12
f 304/144/13 305/148/13 708/148/13 707/144/13
f 194/44/14 195/45/14 598/45/14 597/44/14
f 25/354/15 26/358/15 429/358/15 428/354/15
f 327/252/16 328/248/16 731/248/16 730/252/16
f 292/149/17 293/147/17 696/147/17 695/149/17
f 177/46/18 178/42/18 581/42/18 580/46/18
f 364/251/19 365/253/19 768/253/19 767/251/19
f 305/148/20 306/150/20 709/150/20 708/148/20
f 195/45/21 196/47/21 599/47/21 598/45/21
f 72/359/22 73/356/22 476/356/22 475/359/22
f 49/357/23 50/360/23 453/360/23 452/357/23
f 365/253/24 366/254/24 769/254/24 768/253/24
f 235/145/25 236/151/25 639/151/25 638/145/25
f 196/47/26 197/48/26 600/48/26 599/47/26
f 366/254/27 367/255/27 770/255/27 769/254/27
f 197/48/28 198/49/28 601/49/28 600/48/28
f 48/361/29 1/355/29 404/355/29 451/361/29
f 218/152/30 219/146/30 622/146/30 621/152/30
f 71/362/31 72/359/31 475/359/31 474/362/31
f 326/256/32 327/252/32 730/252/32 729/256/32
f 291/153/33 292/149/33 695/149/33 694/153/33
f 176/50/34 177/46/34 580/46/34 579/50/34
f 50/360/35 51/363/35 454/363/35 453/360/35
f 367/255/36 368/257/36 771/257/36 770/255/36
f 306/150/37 307/154/37 710/154/37 709/150/37
f 198/49/38 199/51/38 602/51/38 601/49/38
f 26/358/39 27/364/39 430/364/39 429/358/39
f 368/257/40 369/258/40 772/258/40 771/257/40
f 236/151/41 237/155/41 640/155/41 639/151/41
f 199/51/42 200/52/42 603/52/42 602/51/42
f 47/365/43 48/361/43 451/361/43 450/365/43
f 325/259/44 326/256/44 729/256/44 728/259/44
f 217/156/45 218/152/45 621/152/45 620/156/45
f 175/53/46 176/50/46 579/50/46 578/53/46
f 369/258/47 370/260/47 773/260/47 772/258/47
f 200/52/48 201/54/48 604/54/48 603/52/48
f 70/366/49 71/362/49 474/362/49 473/366/49
f 290/157/50 291/153/50 694/153/50 693/157/50
f 51/363/51 52/367/51 455/367/51 454/363/51
f 370/260/52 371/261/52 774/261/52 773/260/52
f 307/154/53 308/158/53 711/158/53 710/154/53
f 201/54/54 202/55/54 605/55/54 604/54/54
f 27/364/55 28/368/55 431/368/55 430/364/55
f 324/262/56 325/259/56 728/259/56 727/262/56
f 289/159/57 290/157/57 693/157/57 692/159/57
f 174/56/58 175/53/58 578/53/58 577/56/58
f 371/261/59 372/263/59 775/263/59 774/261/59
f 308/158/60 309/160/60 712/160/60 711/158/60
f 202/55/61 203/57/61 606/57/61 605/55/61
f 46/369/62 47/365/62 450/365/62 449/369/62
f 52/367/63 53/370/63 456/370/63 455/367/63
f 372/263/64 373/264/64 776/264/64 775/263/64
f 237/155/65 238/161/65 641/161/65 640/155/65
f 173/58/66 174/56/66 577/56/66 576/58/66
f 203/57/67 204/59/67 607/59/67 606/57/67
f 69/371/68 70/366/68 473/366/68 472/371/68
f 323/265/69 324/262/69 727/262/69 726/265/69
f 216/162/70 217/156/70 620/156/70 619/162/70
f 53/370/71 54/372/71 457/372/71 456/370/71
f 373/264/72 374/266/72 777/266/72 776/264/72
f 204/59/73 205/60/73 608/60/73 607/59/73
f 288/163/74 289/159/74 692/159/74 691/163/74
f 374/266/75 375/267/75 778/267/75 777/266/75
f 309/160/76 310/164/76 713/164/76 712/160/76
f 68/373/77 69/371/77 472/371/77 471/373/77
f 172/61/78 173/58/78 576/58/78 575/61/78
f 28/368/79 29/374/79 432/374/79 431/368/79
f 238/161/80 239/165/80 642/165/80 641/161/80
f 205/60/81 206/62/81 609/62/81 608/60/81
f 322/268/82 323/265/82 726/265/82 725/268/82
f 375/267/83 376/269/83 779/269/83 778/267/83
f 45/375/84 46/369/84 449/369/84 448/375/84
f 215/166/5 216/162/5 619/162/5 618/166/5
f 171/63/85 172/61/85 575/61/85 574/63/85
f 54/372/86 55/376/86 458/376/86 457/372/86
f 376/269/87 377/270/87 780/270/87 779/269/87
f 206/62/88 207/64/88 610/64/88 609/62/88
f 287/167/9 288/163/9 691/163/9 690/167/9
f 310/164/11 263/168/11 666/168/11 713/164/11
f 67/377/89 68/373/89 471/373/89 470/377/89
f 321/271/90 322/268/90 725/268/90 724/271/90
f 170/65/91 171/63/91 574/63/91 573/65/91
f 29/374/92 30/378/92 433/378/92 432/374/92
f 377/270/93 378/272/93 781/272/93 780/270/93
f 239/165/15 240/169/15 643/169/15 642/165/15
f 207/64/94 208/66/94 611/66/94 610/64/94
f 378/272/95 379/273/95 782/273/95 781/272/95
f 208/66/96 209/67/96 612/67/96 611/66/96
f 44/379/97 45/375/97 448/375/97 447/379/97
f 286/170/22 287/167/22 690/167/22 689/170/22
f 55/376/98 56/380/98 459/380/98 458/376/98
f 263/168/23 264/171/23 667/171/23 666/168/23
f 320/274/99 321/271/99 724/271/99 723/274/99
f 169/68/100 170/65/100 573/65/100 572/68/100
f 379/273/101 380/275/101 783/275/101 782/273/101
f 209/67/102 210/69/102 613/69/102 612/67/102
f 66/381/103 67/377/103 470/377/103 469/381/103
f 262/172/29 215/166/29 618/166/29 665/172/29
f 56/380/104 57/382/104 460/382/104 459/380/104
f 380/275/105 381/276/105 784/276/105 783/275/105
f 210/69/106 211/70/106 614/70/106 613/69/106
f 285/173/31 286/170/31 689/170/31 688/173/31
f 381/276/107 382/277/107 785/277/107 784/276/107
f 264/171/35 265/174/35 668/174/35 667/171/35
f 65/383/108 66/381/108 469/381/108 468/383/108
f 168/71/109 169/68/109 572/68/109 571/71/109
f 30/378/110 31/384/110 434/384/110 433/378/110
f 240/169/39 241/175/39 644/175/39 643/169/39
f 211/70/111 212/72/111 615/72/111 614/70/111
f 319/278/112 320/274/112 723/274/112 722/278/112
f 382/277/113 383/279/113 786/279/113 785/277/113
f 212/72/114 213/73/114 616/73/114 615/72/114
f 43/385/115 44/379/115 447/379/115 446/385/115
f 261/176/43 262/172/43 665/172/43 664/176/43
f 57/382/116 58/386/116 461/386/116 460/382/116
f 383/279/117 384/280/117 787/280/117 786/279/117
f 284/177/49 285/173/49 688/173/49 687/177/49
f 265/174/51 266/178/51 669/178/51 668/174/51
f 64/387/118 65/383/118 468/383/118 467/387/118
f 318/281/119 319/278/119 722/278/119 721/281/119
f 213/73/120 214/38/120 617/38/120 616/73/120
f 58/386/121 59/388/121 462/388/121 461/386/121
f 384/280/122 385/282/122 788/282/122 787/280/122
f 241/175/55 242/179/55 645/179/55 644/175/55
f 385/282/123 386/283/123 789/283/123 788/282/123
f 167/75/124 168/71/124 571/71/124 570/75/124
f 63/389/125 64/387/125 467/387/125 466/389/125
f 260/180/62 261/176/62 664/176/62 663/180/62
f 59/388/126 60/390/126 463/390/126 462/388/126
f 266/178/63 267/181/63 670/181/63 669/178/63
f 166/76/127 167/75/127 570/75/127 569/76/127
f 317/284/128 318/281/128 721/281/128 720/284/128
f 386/283/129 387/285/129 790/285/129 789/283/129
f 165/77/130 166/76/130 569/76/130 568/77/130
f 62/391/131 63/389/131 466/389/131 465/391/131
f 283/182/68 284/177/68 687/177/68 686/182/68
f 31/384/132 32/392/132 435/392/132 434/384/132
f 267/181/71 268/183/71 671/183/71 670/181/71
f 164/78/133 165/77/133 568/77/133 567/78/133
f 316/286/134 317/284/134 720/284/134 719/286/134
f 387/285/135 388/287/135 791/287/135 790/285/135
f 163/79/136 164/78/136 567/78/136 566/79/136
f 42/393/137 43/385/137 446/385/137 445/393/137
f 282/184/77 283/182/77 686/182/77 685/184/77
f 60/390/138 61/394/138 464/394/138 463/390/138
f 242/179/79 243/185/79 646/185/79 645/179/79
f 162/80/139 163/79/139 566/79/139 565/80/139
f 315/288/140 316/286/140 719/286/140 718/288/140
f 388/287/141 389/289/141 792/289/141 791/287/141
f 161/81/142 162/80/142 565/80/142 564/81/142
f 61/394/143 62/391/143 465/391/143 464/394/143
f 259/186/84 260/180/84 663/180/84 662/186/84
f 124/74/144 125/82/144 528/82/144 527/74/144
f 389/289/145 390/290/145 793/290/145 792/289/145
f 268/183/86 269/187/86 672/187/86 671/183/86
f 32/392/146 33/395/146 436/395/146 435/392/146
f 125/82/147 126/83/147 529/83/147 528/82/147
f 314/291/148 315/288/148 718/288/148 717/291/148
f 281/188/89 282/184/89 685/184/89 684/188/89
f 41/396/149 42/393/149 445/393/149 444/396/149
f 390/290/150 391/292/150 794/292/150 793/290/150
f 243/185/92 244/189/92 647/189/92 646/185/92
f 160/84/151 161/81/151 564/81/151 563/84/151
f 33/395/152 34/397/152 437/397/152 436/395/152
f 122/25/144 123/85/144 526/85/144 525/25/144
f 123/85/153 124/74/153 527/74/153 526/85/153
f 313/293/154 314/291/154 717/291/154 716/293/154
f 258/190/97 259/186/97 662/186/97 661/190/97
f 126/83/155 127/86/155 530/86/155 529/83/155
f 40/398/156 41/396/156 444/396/156 443/398/156
f 391/292/157 392/294/157 795/294/157 794/292/157
f 269/187/98 270/191/98 673/191/98 672/187/98
f 34/397/158 35/399/158 438/399/158 437/397/158
f 127/86/159 128/87/159 531/87/159 530/86/159
f 312/295/160 313/293/160 716/293/160 715/295/160
f 280/192/103 281/188/103 684/188/103 683/192/103
f 128/87/161 129/88/161 532/88/161 531/87/161
f 39/400/162 40/398/162 443/398/162 442/400/162
f 392/294/163 393/296/163 796/296/163 795/294/163
f 270/191/104 271/193/104 674/193/104 673/191/104
f 35/399/164 36/401/164 439/401/164 438/399/164
f 393/296/165 394/297/165 797/297/165 796/296/165
f 159/89/166 160/84/166 563/84/166 562/89/166
f 279/194/108 280/192/108 683/192/108 682/194/108
f 129/88/167 130/90/167 533/90/167 532/88/167
f 38/402/168 39/400/168 442/400/168 441/402/168
f 244/189/110 245/195/110 648/195/110 647/189/110
f 36/401/169 37/403/169 440/403/169 439/401/169
f 311/298/120 312/295/120 715/295/120 714/298/120
f 130/90/170 131/91/170 534/91/170 533/90/170
f 37/403/171 38/402/171 441/402/171 440/403/171
f 399/299/153 311/298/153 714/298/153 802/299/153
f 257/196/115 258/190/115 661/190/115 660/196/115
f 394/297/172 395/300/172 798/300/172 797/297/172
f 271/193/116 272/197/116 675/197/116 674/193/116
f 158/92/173 159/89/173 562/89/173 561/92/173
f 131/91/174 132/93/174 535/93/174 534/91/174
f 395/300/175 396/301/175 799/301/175 798/300/175
f 278/198/118 279/194/118 682/194/118 681/198/118
f 396/301/176 397/302/176 800/302/176 799/301/176
f 272/197/121 273/199/121 676/199/121 675/197/121
f 157/94/177 158/92/177 561/92/177 560/94/177
f 132/93/178 133/95/178 536/95/178 535/93/178
f 397/302/179 398/303/179 801/303/179 800/302/179
f 398/303/144 399/299/144 802/299/144 801/303/144
f 277/200/125 278/198/125 681/198/125 680/200/125
f 401/305/179 402/304/179 805/304/179 804/305/179
f 273/199/126 274/201/126 677/201/126 676/199/126
f 156/96/180 157/94/180 560/94/180 559/96/180
f 133/95/181 134/97/181 537/97/181 536/95/181
f 400/306/120 401/305/120 804/305/120 803/306/120
f 402/304/144 403/307/144 806/307/144 805/304/144
f 276/202/131 277/200/131 680/200/131 679/202/131
f 403/307/153 400/306/153 803/306/153 806/307/153
f 245/195/132 246/203/132 649/203/132 648/195/132
f 155/98/182 156/96/182 559/96/182 558/98/182
f 13/309/183 14/308/183 417/308/183 416/309/183
f 134/97/184 135/99/184 538/99/184 537/97/184
f 12/310/185 13/309/185 416/309/185 415/310/185
f 256/204/137 257/196/137 660/196/137 659/204/137
f 274/201/138 275/205/138 678/205/138 677/201/138
f 154/100/186 155/98/186 558/98/186 557/100/186
f 11/311/187 12/310/187 415/310/187 414/311/187
f 135/99/188 136/101/188 539/101/188 538/99/188
f 14/308/189 15/312/189 418/312/189 417/308/189
f 275/205/143 276/202/143 679/202/143 678/205/143
f 153/102/190 154/100/190 557/100/190 556/102/190
f 10/313/191 11/311/191 414/311/191 413/313/191
f 246/203/146 247/206/146 650/206/146 649/203/146
f 15/312/192 16/314/192 419/314/192 418/312/192
f 152/103/193 153/102/193 556/102/193 555/103/193
f 136/101/194 137/104/194 540/104/194 539/101/194
f 255/207/149 256/204/149 659/204/149 658/207/149
f 9/315/195 10/313/195 413/313/195 412/315/195
f 247/206/152 248/208/152 651/208/152 650/206/152
f 16/314/196 17/316/196 420/316/196 419/314/196
f 151/105/197 152/103/197 555/103/197 554/105/197
f 137/104/198 138/106/198 541/106/198 540/104/198
f 17/316/199 18/317/199 421/317/199 420/316/199
f 254/209/156 255/207/156 658/207/156 657/209/156
f 248/208/158 249/210/158 652/210/158 651/208/158
f 102/2/179 103/1/179 506/1/179 505/2/179
f 150/107/200 151/105/200 554/105/200 553/107/200
f 8/318/201 9/315/201 412/315/201 411/318/201
f 101/3/120 102/2/120 505/2/120 504/3/120
f 18/317/202 19/319/202 422/319/202 421/317/202
f 253/211/162 254/209/162 657/209/162 656/211/162
f 149/108/203 150/107/203 553/107/203 552/108/203
f 249/210/164 250/212/164 653/212/164 652/210/164
f 100/4/153 101/3/153 504/3/153 503/4/153
f 148/109/204 149/108/204 552/108/204 551/109/204
f 98/6/179 99/5/179 502/5/179 501/6/179
f 252/213/168 253/211/168 656/211/168 655/213/168
f 147/110/205 148/109/205 551/109/205 550/110/205
f 97/7/120 98/6/120 501/6/120 500/7/120
f 7/321/206 8/318/206 411/318/206 410/321/206
f 250/212/169 251/214/169 654/214/169 653/212/169
f 251/214/171 252/213/171 655/213/171 654/214/171
f 146/111/207 147/110/207 550/110/207 549/111/207
f 108/8/153 97/7/153 500/7/153 511/8/153
f 84/322/208 85/320/208 488/320/208 487/322/208
f 336/216/209 337/215/209 740/215/209 739/216/209
f 85/320/210 86/323/210 489/323/210 488/320/210
f 145/112/211 146/111/211 549/111/211 548/112/211
f 335/217/212 336/216/212 739/216/212 738/217/212
f 337/215/213 338/218/213 741/218/213 740/215/213
f 144/113/214 145/112/214 548/112/214 547/113/214
f 99/5/120 100/4/120 503/4/120 502/5/120
f 83/324/215 84/322/215 487/322/215 486/324/215
f 105/9/144 106/10/144 509/10/144 508/9/144
f 86/323/216 87/325/216 490/325/216 489/323/216
f 338/218/217 339/219/217 742/219/217 741/218/217
f 143/114/218 144/113/218 547/113/218 546/114/218
f 19/319/219 20/326/219 423/326/219 422/319/219
f 142/115/220 143/114/220 546/114/220 545/115/220
f 103/1/144 104/11/144 507/11/144 506/1/144
f 334/220/221 335/217/221 738/217/221 737/220/221
f 104/11/153 105/9/153 508/9/153 507/11/153
f 339/219/222 340/221/222 743/221/222 742/219/222
f 141/116/223 142/115/223 545/115/223 544/116/223
f 106/10/179 107/12/179 510/12/179 509/10/179
f 6/327/224 7/321/224 410/321/224 409/327/224
f 107/12/144 108/8/144 511/8/144 510/12/144
f 140/117/225 141/116/225 544/116/225 543/117/225
f 110/14/179 111/13/179 514/13/179 513/14/179
f 82/328/226 83/324/226 486/324/226 485/328/226
f 333/222/227 334/220/227 737/220/227 736/222/227
f 138/106/144 139/118/144 542/118/144 541/106/144
f 87/325/228 88/329/228 491/329/228 490/325/228
f 340/221/229 341/223/229 744/223/229 743/221/229
f 139/118/230 140/117/230 543/117/230 542/118/230
f 227/120/183 228/119/183 631/119/183 630/120/183
f 341/223/231 342/224/231 745/224/231 744/223/231
f 109/16/120 110/14/120 513/14/120 512/16/120
f 81/330/232 82/328/232 485/328/232 484/330/232
f 226/121/185 227/120/185 630/120/185 629/121/185
f 119/15/144 120/17/144 523/17/144 522/15/144
f 88/329/233 89/331/233 492/331/233 491/329/233
f 120/17/153 109/16/153 512/16/153 523/17/153
f 332/225/234 333/222/234 736/222/234 735/225/234
f 225/122/187 226/121/187 629/121/187 628/122/187
f 342/224/235 343/226/235 746/226/235 745/224/235
f 228/119/189 229/123/189 632/123/189 631/119/189
f 118/18/153 119/15/153 522/15/153 521/18/153
f 80/332/236 81/330/236 484/330/236 483/332/236
f 89/331/237 90/333/237 493/333/237 492/331/237
f 343/226/238 344/227/238 747/227/238 746/226/238
f 224/124/191 225/122/191 628/122/191 627/124/191
f 20/326/239 21/334/239 424/334/239 423/326/239
f 229/123/192 230/125/192 633/125/192 632/123/192
f 117/20/120 118/18/120 521/18/120 520/20/120
f 331/228/240 332/225/240 735/225/240 734/228/240
f 115/19/144 116/21/144 519/21/144 518/19/144
f 344/227/241 345/229/241 748/229/241 747/227/241
f 116/21/153 117/20/153 520/20/153 519/21/153
f 5/335/6 6/327/6 409/327/6 408/335/6
f 223/126/195 224/124/195 627/124/195 626/126/195
f 345/229/242 346/230/242 749/230/242 748/229/242
f 230/125/196 231/127/196 634/127/196 633/125/196
f 114/22/153 115/19/153 518/19/153 517/22/153
f 79/336/10 80/332/10 483/332/10 482/336/10
f 90/333/13 91/337/13 494/337/13 493/333/13
f 231/127/199 232/128/199 635/128/199 634/127/199
f 113/23/120 114/22/120 517/22/120 516/23/120
f 330/231/243 331/228/243 734/228/243 733/231/243
f 111/13/144 112/24/144 515/24/144 514/13/144
f 346/230/244 347/232/244 750/232/244 749/230/244
f 112/24/153 113/23/153 516/23/153 515/24/153
f 78/338/17 79/336/17 482/336/17 481/338/17
f 222/129/201 223/126/201 626/126/201 625/129/201
f 121/26/179 122/25/179 525/25/179 524/26/179
f 91/337/20 92/339/20 495/339/20 494/337/20
f 347/232/245 348/233/245 751/233/245 750/232/245
f 232/128/246 233/130/246 636/130/246 635/128/246
f 21/334/25 22/340/25 425/340/25 424/334/25
f 329/234/247 330/231/247 733/231/247 732/234/247
f 187/28/120 121/26/120 524/26/120 590/28/120
f 348/233/179 349/235/179 752/235/179 751/233/179
f 4/341/30 5/335/30 408/335/30 407/341/30
f 349/235/248 350/236/248 753/236/248 752/235/248
f 221/132/206 222/129/206 625/129/206 624/132/206
f 186/29/249 187/28/249 590/28/249 589/29/249
f 77/342/33 78/338/33 481/338/33 480/342/33
f 350/236/250 351/237/250 754/237/250 753/236/250
f 298/133/208 299/131/208 702/131/208 701/133/208
f 185/30/251 186/29/251 589/29/251 588/30/251
f 92/339/37 93/343/37 496/343/37 495/339/37
f 299/131/210 300/134/210 703/134/210 702/131/210
f 351/237/252 352/238/252 755/238/252 754/237/252
f 184/31/253 185/30/253 588/30/253 587/31/253
f 22/340/41 23/344/41 426/344/41 425/340/41
f 352/238/254 353/239/254 756/239/254 755/238/254
f 297/135/215 298/133/215 701/133/215 700/135/215
f 183/32/255 184/31/255 587/31/255 586/32/255
f 300/134/216 301/136/216 704/136/216 703/134/216
f 3/345/45 4/341/45 407/341/45 406/345/45
f 353/239/256 354/240/256 757/240/256 756/239/256
f 182/33/257 183/32/257 586/32/257 585/33/257
f 233/130/219 234/137/219 637/137/219 636/130/219
f 76/346/50 77/342/50 480/342/50 479/346/50
f 354/240/258 355/241/258 758/241/258 757/240/258
f 181/34/259 182/33/259 585/33/259 584/34/259
f 93/343/53 94/347/53 497/347/53 496/343/53
f 355/241/260 356/242/260 759/242/260 758/241/260
f 220/138/224 221/132/224 624/132/224 623/138/224
f 180/35/261 181/34/261 584/34/261 583/35/261
f 188/27/144 189/36/144 592/36/144 591/27/144
f 75/348/57 76/346/57 479/346/57 478/348/57
f 356/242/262 357/243/262 760/243/262 759/242/262
f 296/139/226 297/135/226 700/135/226 699/139/226
f 94/347/60 95/349/60 498/349/60 497/347/60
f 301/136/228 302/140/228 705/140/228 704/136/228
f 357/243/263 358/244/263 761/244/263 760/243/263
f 179/37/264 180/35/264 583/35/264 582/37/264
f 23/344/65 24/350/65 427/350/65 426/344/65
f 358/244/265 359/245/265 762/245/265 761/244/265
f 295/141/232 296/139/232 699/139/232 698/141/232
f 214/38/153 188/27/153 591/27/153 617/38/153
f 302/140/233 303/142/233 706/142/233 705/140/233
f 189/36/266 190/39/266 593/39/266 592/36/266
f 2/351/70 3/345/70 406/345/70 405/351/70
f 359/245/267 360/246/267 763/246/267 762/245/267
f 190/39/268 191/40/268 594/40/268 593/39/268
f 74/352/74 75/348/74 478/348/74 477/352/74
f 294/143/236 295/141/236 698/141/236 697/143/236
f 95/349/76 96/353/76 499/353/76 498/349/76
f 360/246/269 361/247/269 764/247/269 763/246/269
f 303/142/237 304/144/237 707/144/237 706/142/237
f 191/40/270 192/41/270 595/41/270 594/40/270
f 24/350/80 25/354/80 428/354/80 427/350/80
f 234/137/239 235/145/239 638/145/239 637/137/239
f 328/248/271 329/234/271 732/234/271 731/248/271
f 178/42/272 179/37/272 582/37/272 581/42/272
